<?xml version="1.0" encoding="UTF-8" standalone="no" ?>
<!DOCTYPE svg PUBLIC "-//W3C//DTD SVG 1.1//EN" "http://www.w3.org/Graphics/SVG/1.1/DTD/svg11.dtd">
<svg xmlns="http://www.w3.org/2000/svg" xmlns:xlink="http://www.w3.org/1999/xlink" version="1.1" width="1050" height="1050" viewBox="0 0 525 525" xml:space="preserve">
<desc>Created with Fabric.js 4.6.0</desc>
<defs>
</defs>
<g transform="matrix(1 0 0 1 263 263)" id="Ow_CoEXUyCjUBrwXCBySr"  >
<path style="stroke: rgb(255,255,255); stroke-width: 10; stroke-dasharray: none; stroke-linecap: butt; stroke-dashoffset: 0; stroke-linejoin: miter; stroke-miterlimit: 4; fill: rgb(3,81,114); fill-rule: nonzero; opacity: 1;" vector-effect="non-scaling-stroke"  transform=" translate(0, 0)" d="M 0 -245 C 135.24 -245 245 -135.24 245 0 C 245 135.24 135.24 245 0 245 C -135.24 245 -245 135.24 -245 0 C -245 -135.24 -135.24 -245 0 -245 z" stroke-linecap="round" />
</g>
<g transform="matrix(1 0 0 1 220.5 253)" id="y0WG9VPpcpjRQeqU10E_h"  >
<path style="stroke: rgb(14,222,164); stroke-width: 0; stroke-dasharray: none; stroke-linecap: butt; stroke-dashoffset: 0; stroke-linejoin: miter; stroke-miterlimit: 4; fill: rgb(255,255,255); fill-rule: nonzero; opacity: 1;" vector-effect="non-scaling-stroke"  transform=" translate(-108.5, -108)" d="M 149 91.02897 C 149.33089 91.00975 149.66432 91 150 91 C 159.38400000000001 91 167 98.616 167 108 C 167 117.384 159.38400000000001 125 150 125 C 149.66432 125 149.33089 124.99025 149 124.97103 L 149 125 L 62.30771 125 C 46.68186 125 34 137.768 34 153.5 C 34 169.232 46.68185 182 62.30771 182 L 200 182 C 209.38400000000001 182 217 189.61599999999999 217 199 C 217 208.38400000000001 209.38400000000001 216 200 216 L 60 216 C 26.880000000000003 216 0 189.12 0 156 C 0 136.37992 9.43301 118.94964 24.0082 108 C 9.43301 97.05036 0 79.62008 0 60 C 0 26.880000000000003 26.88 0 60 0 L 200 0 C 209.38400000000001 0 217 7.616 217 17 C 217 26.384 209.38400000000001 34 200 34 L 61.807709999999986 34 C 46.181859999999986 34 33.499999999999986 46.768 33.499999999999986 62.5 C 33.499999999999986 78.232 46.18184999999998 91 61.807709999999986 91 L 149 91 z" stroke-linecap="round" />
</g>
<g transform="matrix(-1 0 0 1 314.5 299)" id="s0jEmnvd2IQNQ6lzyhwi7"  >
<path style="stroke: rgb(14,222,164); stroke-width: 0; stroke-dasharray: none; stroke-linecap: butt; stroke-dashoffset: 0; stroke-linejoin: miter; stroke-miterlimit: 4; fill: rgb(201,172,106); fill-rule: nonzero; opacity: 1;" vector-effect="non-scaling-stroke"  transform=" translate(-108.5, -108)" d="M 149 91.02897 C 149.33089 91.00975 149.66432 91 150 91 C 159.38400000000001 91 167 98.616 167 108 C 167 117.384 159.38400000000001 125 150 125 C 149.66432 125 149.33089 124.99025 149 124.97103 L 149 125 L 62.30771 125 C 46.68186 125 34 137.768 34 153.5 C 34 169.232 46.68185 182 62.30771 182 L 200 182 C 209.38400000000001 182 217 189.61599999999999 217 199 C 217 208.38400000000001 209.38400000000001 216 200 216 L 60 216 C 26.880000000000003 216 0 189.12 0 156 C 0 136.37992 9.43301 118.94964 24.0082 108 C 9.43301 97.05036 0 79.62008 0 60 C 0 26.880000000000003 26.88 0 60 0 L 200 0 C 209.38400000000001 0 217 7.616 217 17 C 217 26.384 209.38400000000001 34 200 34 L 61.807709999999986 34 C 46.181859999999986 34 33.499999999999986 46.768 33.499999999999986 62.5 C 33.499999999999986 78.232 46.18184999999998 91 61.807709999999986 91 L 149 91 z" stroke-linecap="round" />
</g>
</svg>