<svg width="637" height="577" xmlns="http://www.w3.org/2000/svg" xmlns:xlink="http://www.w3.org/1999/xlink" xml:space="preserve" overflow="hidden"><defs><filter id="fx0" x="-10%" y="-10%" width="120%" height="120%" filterUnits="userSpaceOnUse" primitiveUnits="userSpaceOnUse"><feComponentTransfer color-interpolation-filters="sRGB"><feFuncR type="discrete" tableValues="0.000000 0.000000"/><feFuncG type="discrete" tableValues="0.000000 0.000000"/><feFuncB type="discrete" tableValues="0.000000 0.000000"/><feFuncA type="linear" slope="0.400000" intercept="0.000000"/></feComponentTransfer><feGaussianBlur stdDeviation="6.111111 6.111111"/></filter><filter id="fx1" x="-10%" y="-10%" width="120%" height="120%" filterUnits="userSpaceOnUse" primitiveUnits="userSpaceOnUse"><feComponentTransfer color-interpolation-filters="sRGB"><feFuncR type="discrete" tableValues="0.000000 0.000000"/><feFuncG type="discrete" tableValues="0.000000 0.000000"/><feFuncB type="discrete" tableValues="0.000000 0.000000"/><feFuncA type="linear" slope="0.400000" intercept="0.000000"/></feComponentTransfer><feGaussianBlur stdDeviation="6.111111 6.111111"/></filter><filter id="fx2" x="-10%" y="-10%" width="120%" height="120%" filterUnits="userSpaceOnUse" primitiveUnits="userSpaceOnUse"><feComponentTransfer color-interpolation-filters="sRGB"><feFuncR type="discrete" tableValues="0.000000 0.000000"/><feFuncG type="discrete" tableValues="0.000000 0.000000"/><feFuncB type="discrete" tableValues="0.000000 0.000000"/><feFuncA type="linear" slope="0.400000" intercept="0.000000"/></feComponentTransfer><feGaussianBlur stdDeviation="6.111111 6.111111"/></filter><filter id="fx3" x="-10%" y="-10%" width="120%" height="120%" filterUnits="userSpaceOnUse" primitiveUnits="userSpaceOnUse"><feComponentTransfer color-interpolation-filters="sRGB"><feFuncR type="discrete" tableValues="0.000000 0.000000"/><feFuncG type="discrete" tableValues="0.000000 0.000000"/><feFuncB type="discrete" tableValues="0.000000 0.000000"/><feFuncA type="linear" slope="0.400000" intercept="0.000000"/></feComponentTransfer><feGaussianBlur stdDeviation="6.111111 6.111111"/></filter><linearGradient x1="496.681" y1="1644.33" x2="424.352" y2="1451.46" gradientUnits="userSpaceOnUse" spreadMethod="reflect" id="fill4"><stop offset="0" stop-color="#023B53" stop-opacity="1"/><stop offset="0.1" stop-color="#023B53" stop-opacity="1"/><stop offset="0.4" stop-color="#034E6E" stop-opacity="1"/><stop offset="0.9" stop-color="#6EA1B6" stop-opacity="1"/><stop offset="1" stop-color="#6EA1B6" stop-opacity="1"/></linearGradient><clipPath id="clip5"><path d="M182.5 1273.5 182.5 1378.5 739.5 1378.5 739.5 1273.5ZM142 1045 779 1045 779 1622 142 1622Z" fill-rule="evenodd" clip-rule="evenodd"/></clipPath><clipPath id="clip6"><rect x="1.6667" y="1.66675" width="602.666" height="150.667"/></clipPath><clipPath id="clip7"><path d="M653.921 1225.55C642.487 1225.24 631.832 1226.31 623.08 1229.49 605.577 1235.85 593.773 1256.62 581.543 1277.1L576.335 1285.49 572.924 1285.64C523.602 1287.78 464.073 1290.77 409.392 1293.53L401.113 1293.95 392.601 1291.39C350.85 1280.17 323.091 1258.46 286.941 1255.6 250.791 1252.74 189.831 1267.12 175.702 1274.23 176.473 1296.08 174.954 1315.64 175.726 1337.5 208.799 1319.67 208.659 1304.14 274.944 1300.07 294.899 1299.24 323.699 1297.84 356.884 1296.18L401.113 1293.95 409.237 1296.39C450.113 1309.62 503.839 1331.94 537.45 1322.91 551.855 1319.04 562.575 1306.72 572.195 1292.17L576.335 1285.49 596.665 1284.64C619.416 1283.72 638.988 1283.06 653.499 1282.79 729.748 1277.55 702.459 1281.59 740.456 1277.61 740.059 1261.46 747.882 1262.8 747.486 1246.65 729.536 1239.94 688.224 1226.5 653.921 1225.55ZM142 1045 779 1045 779 1622 142 1622Z" fill-rule="evenodd" clip-rule="evenodd"/></clipPath><clipPath id="clip8"><rect x="1.66029" y="-2.55249" width="617.71" height="162.93"/></clipPath><clipPath id="clip9"><path d="M466.157 1119.51C410.448 1118.41 352.966 1300.96 312.523 1343.15 272.081 1385.33 236.937 1354.06 223.5 1372.6L231.898 1454.41 670.297 1455.5C739.445 1438.05 658.979 1389.73 624.955 1333.73 590.932 1277.73 521.867 1120.6 466.157 1119.51ZM142 1045 779 1045 779 1622 142 1622Z" fill-rule="evenodd" clip-rule="evenodd"/></clipPath><clipPath id="clip10"><rect x="1.57715" y="1.61328" width="539.756" height="381.721"/></clipPath><clipPath id="clip11"><path d="M646.57 1310.72C633.761 1309.98 622.386 1311.08 614.161 1314.73 581.262 1329.35 593.671 1416.67 556.912 1435.68 520.152 1454.69 443.62 1441.07 393.603 1428.8 343.586 1416.53 278.851 1372.04 256.81 1362.07 234.768 1352.1 182.641 1344.83 168.5 1362.07L171.963 1465.5 755.5 1465.5C755.103 1426.33 754.706 1387.16 754.31 1347.99 736.345 1331.73 685 1312.93 646.57 1310.72ZM142 1045 779 1045 779 1622 142 1622Z" fill-rule="evenodd" clip-rule="evenodd"/></clipPath><clipPath id="clip12"><rect x="1.63257" y="-4.21265" width="632.726" height="206.546"/></clipPath></defs><g transform="translate(-142 -1045)"><g><path d="M474.458 1540.6C472.373 1540.6 470.594 1541.02 469.122 1541.85 467.65 1542.67 466.515 1543.87 465.718 1545.43 464.921 1547 464.522 1548.88 464.522 1551.09L464.522 1559.19C464.522 1560.9 464.767 1562.42 465.258 1563.74 465.749 1565.06 466.423 1566.21 467.282 1567.19 468.079 1567.99 469.076 1568.6 470.272 1569.03 471.468 1569.46 472.802 1569.68 474.274 1569.68 476.359 1569.68 478.153 1569.26 479.656 1568.43 481.159 1567.61 482.293 1566.39 483.06 1564.8 483.827 1563.2 484.21 1561.33 484.21 1559.19L484.21 1551.09C484.21 1549.19 483.995 1547.58 483.566 1546.26 483.137 1544.94 482.493 1543.85 481.634 1543 480.837 1542.14 479.84 1541.52 478.644 1541.16 477.448 1540.79 476.053 1540.6 474.458 1540.6ZM589.133 1539.78C586.067 1539.78 583.782 1540.53 582.279 1542.03 580.777 1543.53 580.025 1545.97 580.025 1549.34L580.025 1550.63 597.781 1550.63C597.781 1550.39 597.781 1550.17 597.781 1549.99 597.781 1549.8 597.781 1549.59 597.781 1549.34 597.781 1547.56 597.597 1546.05 597.229 1544.79 596.861 1543.53 596.279 1542.54 595.481 1541.8 594.807 1541.06 593.948 1540.54 592.905 1540.24 591.863 1539.93 590.605 1539.78 589.133 1539.78ZM387.467 1539.78C384.4 1539.78 382.115 1540.53 380.613 1542.03 379.11 1543.53 378.359 1545.97 378.359 1549.34L378.359 1550.63 396.115 1550.63C396.115 1550.39 396.115 1550.17 396.115 1549.99 396.115 1549.8 396.115 1549.59 396.115 1549.34 396.115 1547.56 395.931 1546.05 395.563 1544.79 395.195 1543.53 394.612 1542.54 393.815 1541.8 393.14 1541.06 392.281 1540.54 391.239 1540.24 390.196 1539.93 388.939 1539.78 387.467 1539.78ZM519.104 1530.39C521.189 1530.39 523.229 1530.39 525.222 1530.39 527.215 1530.39 529.224 1530.39 531.248 1530.39 531.555 1530.39 531.785 1530.45 531.938 1530.58 532.091 1530.7 532.245 1530.85 532.398 1531.04 532.551 1531.22 532.659 1531.46 532.72 1531.77 533.763 1535.57 534.821 1539.42 535.894 1543.32 536.967 1547.21 538.041 1551.4 539.114 1555.88 540.187 1560.35 541.276 1565.38 542.38 1570.96L544.128 1570.96C544.803 1567.65 545.477 1564.51 546.152 1561.53 546.827 1558.56 547.501 1555.71 548.176 1552.98 548.851 1550.25 549.51 1547.63 550.154 1545.11 550.798 1542.6 551.442 1540.11 552.086 1537.66 552.73 1535.21 553.359 1532.78 553.972 1530.39 555.873 1530.39 557.79 1530.39 559.722 1530.39 561.654 1530.39 563.601 1530.39 565.564 1530.39 565.871 1530.39 566.116 1530.47 566.3 1530.62 566.484 1530.77 566.622 1530.97 566.714 1531.22 566.806 1531.46 566.791 1531.74 566.668 1532.05 565.441 1536.03 564.215 1540.02 562.988 1544.01 561.761 1547.99 560.55 1551.98 559.354 1555.97 558.158 1559.95 556.962 1563.94 555.766 1567.93 554.57 1571.91 553.328 1575.9 552.04 1579.89 549.341 1579.89 546.658 1579.89 543.99 1579.89 541.322 1579.89 538.853 1579.89 536.584 1579.89 535.971 1579.89 535.449 1579.8 535.02 1579.61 534.591 1579.43 534.238 1579.09 533.962 1578.6 533.686 1578.11 533.364 1577.34 532.996 1576.3 532.199 1573.54 531.355 1570.7 530.466 1567.79 529.577 1564.88 528.672 1561.89 527.752 1558.82 526.832 1555.75 525.897 1552.66 524.946 1549.53 523.995 1546.4 523.029 1543.23 522.048 1540.01 521.067 1536.79 520.085 1533.58 519.104 1530.39ZM434.404 1529.47C436.367 1529.47 438.176 1529.55 439.832 1529.7 441.488 1529.85 442.991 1530.05 444.34 1530.3 445.689 1530.54 446.885 1530.82 447.928 1531.13 448.357 1531.25 448.679 1531.39 448.894 1531.54 449.109 1531.69 449.231 1531.89 449.262 1532.14 449.293 1532.38 449.308 1532.75 449.308 1533.24 449.308 1534.53 449.308 1536.14 449.308 1538.07 449.308 1540.01 449.308 1541.8 449.308 1543.46L447.652 1543.46C445.996 1543.03 444.401 1542.66 442.868 1542.35 441.335 1542.04 439.771 1541.83 438.176 1541.71 436.581 1541.58 434.895 1541.52 433.116 1541.52 430.663 1541.52 428.746 1541.69 427.366 1542.03 425.986 1542.37 425.02 1542.81 424.468 1543.36 423.916 1543.92 423.64 1544.56 423.64 1545.3 423.64 1545.97 423.809 1546.57 424.146 1547.09 424.483 1547.61 425.051 1548.02 425.848 1548.33 426.645 1548.64 427.749 1548.91 429.16 1549.16L437.808 1550.45C440.813 1550.82 443.359 1551.6 445.444 1552.79 447.529 1553.99 449.139 1555.55 450.274 1557.49 451.409 1559.42 451.976 1561.73 451.976 1564.43 451.976 1567.74 451.133 1570.63 449.446 1573.08 447.759 1575.53 445.291 1577.43 442.04 1578.78 438.789 1580.13 434.803 1580.81 430.08 1580.81 427.872 1580.81 425.817 1580.73 423.916 1580.58 422.015 1580.42 420.251 1580.21 418.626 1579.93 417.001 1579.66 415.544 1579.34 414.256 1578.97 412.968 1578.6 411.864 1578.2 410.944 1577.77 410.576 1577.65 410.346 1577.5 410.254 1577.31 410.162 1577.13 410.116 1576.79 410.116 1576.3 410.116 1574.89 410.116 1573.2 410.116 1571.24 410.116 1569.28 410.116 1567.38 410.116 1565.54L411.772 1565.54C413.244 1566.15 414.67 1566.65 416.05 1567.05 417.43 1567.45 418.841 1567.77 420.282 1568.02 421.723 1568.26 423.257 1568.45 424.882 1568.57 426.507 1568.69 428.271 1568.76 430.172 1568.76 433.852 1568.76 436.367 1568.34 437.716 1567.51 439.065 1566.69 439.74 1565.72 439.74 1564.62 439.74 1563.94 439.571 1563.33 439.234 1562.78 438.897 1562.22 438.314 1561.75 437.486 1561.35 436.658 1560.95 435.477 1560.63 433.944 1560.38L424.468 1559C421.524 1558.51 419.071 1557.67 417.108 1556.47 415.145 1555.28 413.689 1553.76 412.738 1551.92 411.787 1550.08 411.312 1548.02 411.312 1545.76 411.312 1543.18 411.818 1540.89 412.83 1538.9 413.842 1536.91 415.329 1535.21 417.292 1533.8 419.255 1532.38 421.677 1531.31 424.56 1530.58 427.443 1529.84 430.724 1529.47 434.404 1529.47ZM589.133 1529.29C593.304 1529.29 596.938 1530.15 600.035 1531.86 603.133 1533.58 605.54 1535.97 607.257 1539.04 608.975 1542.11 609.833 1545.69 609.833 1549.8L609.833 1557.44C609.833 1557.62 609.803 1557.79 609.741 1557.95 609.68 1558.1 609.573 1558.21 609.419 1558.27 609.266 1558.33 609.097 1558.36 608.913 1558.36L587.753 1558.36C586.711 1558.36 585.653 1558.36 584.579 1558.36 583.506 1558.36 582.448 1558.36 581.405 1558.36L580.025 1558.36 580.025 1560.57C580.025 1561.55 580.117 1562.47 580.301 1563.33 580.485 1564.19 580.731 1564.95 581.037 1565.63 581.344 1566.3 581.773 1566.88 582.325 1567.38 583.307 1568.36 584.61 1569.06 586.235 1569.49 587.861 1569.92 589.747 1570.14 591.893 1570.14 594.101 1570.14 596.049 1570.01 597.735 1569.77 599.422 1569.52 601.032 1569.22 602.565 1568.85 604.099 1568.48 605.54 1568.02 606.889 1567.47L608.637 1567.47C608.637 1569.06 608.637 1570.64 608.637 1572.21 608.637 1573.77 608.637 1575.35 608.637 1576.94 608.637 1577.07 608.607 1577.19 608.545 1577.31 608.484 1577.43 608.392 1577.56 608.269 1577.68 607.779 1578.23 606.675 1578.75 604.957 1579.24 603.24 1579.73 601.216 1580.15 598.885 1580.49 596.555 1580.82 594.193 1580.99 591.801 1580.99 587.753 1580.99 584.196 1580.52 581.129 1579.57 578.063 1578.61 575.548 1577.25 573.585 1575.47 571.623 1573.69 570.135 1571.53 569.123 1568.99 568.111 1566.44 567.605 1563.57 567.605 1560.38L567.605 1549.9C567.605 1546.77 568.111 1543.95 569.123 1541.43 570.135 1538.92 571.592 1536.75 573.493 1534.95 575.395 1533.14 577.664 1531.74 580.301 1530.76 582.939 1529.78 585.883 1529.29 589.133 1529.29ZM474.366 1529.29C477.678 1529.29 480.699 1529.81 483.428 1530.85 486.157 1531.89 488.503 1533.35 490.466 1535.22 492.429 1537.09 493.947 1539.32 495.02 1541.89 496.093 1544.47 496.63 1547.32 496.63 1550.45L496.63 1559.74C496.63 1563.91 495.695 1567.59 493.824 1570.78 491.953 1573.97 489.347 1576.47 486.004 1578.28 482.661 1580.09 478.782 1580.99 474.366 1580.99 471.054 1580.99 468.033 1580.47 465.304 1579.43 462.575 1578.38 460.229 1576.93 458.266 1575.06 456.303 1573.19 454.785 1570.96 453.712 1568.39 452.639 1565.81 452.102 1562.96 452.102 1559.83L452.102 1550.54C452.102 1546.37 453.037 1542.69 454.908 1539.5 456.779 1536.31 459.401 1533.81 462.774 1532 466.147 1530.19 470.011 1529.29 474.366 1529.29ZM387.467 1529.29C391.637 1529.29 395.271 1530.15 398.369 1531.86 401.466 1533.58 403.873 1535.97 405.591 1539.04 407.308 1542.11 408.167 1545.69 408.167 1549.8L408.167 1557.44C408.167 1557.62 408.136 1557.79 408.075 1557.95 408.013 1558.1 407.906 1558.21 407.753 1558.27 407.599 1558.33 407.431 1558.36 407.247 1558.36L386.087 1558.36C385.044 1558.36 383.986 1558.36 382.913 1558.36 381.839 1558.36 380.781 1558.36 379.739 1558.36L378.359 1558.36 378.359 1560.57C378.359 1561.55 378.451 1562.47 378.635 1563.33 378.819 1564.19 379.064 1564.95 379.371 1565.63 379.677 1566.3 380.107 1566.88 380.659 1567.38 381.64 1568.36 382.943 1569.06 384.569 1569.49 386.194 1569.92 388.08 1570.14 390.227 1570.14 392.435 1570.14 394.382 1570.01 396.069 1569.77 397.755 1569.52 399.365 1569.22 400.899 1568.85 402.432 1568.48 403.873 1568.02 405.223 1567.47L406.971 1567.47C406.971 1569.06 406.971 1570.64 406.971 1572.21 406.971 1573.77 406.971 1575.35 406.971 1576.94 406.971 1577.07 406.94 1577.19 406.879 1577.31 406.817 1577.43 406.725 1577.56 406.603 1577.68 406.112 1578.23 405.008 1578.75 403.291 1579.24 401.573 1579.73 399.549 1580.15 397.219 1580.49 394.888 1580.82 392.527 1580.99 390.135 1580.99 386.087 1580.99 382.529 1580.52 379.463 1579.57 376.396 1578.61 373.881 1577.25 371.919 1575.47 369.956 1573.69 368.469 1571.53 367.457 1568.99 366.445 1566.44 365.939 1563.57 365.939 1560.38L365.939 1549.9C365.939 1546.77 366.445 1543.95 367.457 1541.43 368.469 1538.92 369.925 1536.75 371.827 1534.95 373.728 1533.14 375.997 1531.74 378.635 1530.76 381.272 1529.78 384.216 1529.29 387.467 1529.29ZM333.905 1526.71 333.905 1530.9C333.905 1532.89 333.905 1534.81 333.905 1536.65L333.905 1546.77 337.079 1546.77C338.889 1546.77 340.683 1546.77 342.461 1546.77 344.179 1546.77 345.589 1546.52 346.693 1546.03 347.797 1545.54 348.61 1544.76 349.131 1543.69 349.653 1542.61 349.913 1541.31 349.913 1539.78L349.913 1533.8C349.913 1532.63 349.775 1531.62 349.499 1530.76 349.223 1529.9 348.779 1529.16 348.165 1528.55 347.613 1528 346.862 1527.55 345.911 1527.22 344.961 1526.88 343.811 1526.71 342.461 1526.71 339.701 1526.71 336.926 1526.71 334.135 1526.71ZM316.609 1515.49C320.841 1515.49 325.073 1515.49 329.305 1515.49 333.537 1515.49 337.769 1515.49 342.001 1515.49 345.743 1515.49 348.932 1515.92 351.569 1516.78 354.207 1517.63 356.353 1518.91 358.009 1520.59 359.665 1522.28 360.877 1524.29 361.643 1526.62 362.41 1528.95 362.793 1531.56 362.793 1534.44L362.793 1539.59C362.793 1542.41 362.364 1544.94 361.505 1547.18 360.647 1549.42 359.405 1551.32 357.779 1552.89 356.967 1553.67 356.066 1554.35 355.077 1554.94L353.349 1555.74 354.789 1558.31C356.139 1560.74 357.58 1563.39 359.113 1566.27 359.665 1567.19 360.171 1567.82 360.631 1568.16 361.091 1568.49 361.659 1568.66 362.333 1568.66 362.64 1568.66 362.87 1568.66 363.023 1568.66 363.177 1568.66 363.376 1568.66 363.621 1568.66L365.369 1568.66C365.369 1570.5 365.369 1572.21 365.369 1573.77 365.369 1575.33 365.369 1577.04 365.369 1578.88 365.369 1579.18 365.277 1579.43 365.093 1579.61 364.909 1579.8 364.664 1579.89 364.357 1579.89 363.928 1579.89 363.361 1579.89 362.655 1579.89 361.95 1579.89 361.291 1579.89 360.677 1579.89 358.592 1579.89 356.844 1579.72 355.433 1579.38 354.023 1579.04 352.811 1578.43 351.799 1577.54 350.787 1576.65 349.852 1575.41 348.993 1573.82 347.399 1570.69 345.819 1567.57 344.255 1564.48L340.743 1557.62 338.367 1557.62 333.905 1557.62 333.905 1558.96C333.905 1562.73 333.905 1566.7 333.905 1570.87 333.905 1572.53 333.905 1574.12 333.905 1575.66 333.905 1577.19 333.905 1578.6 333.905 1579.89 331.881 1579.89 329.934 1579.89 328.063 1579.89 326.193 1579.89 324.215 1579.89 322.129 1579.89 321.823 1579.89 321.577 1579.8 321.393 1579.61 321.209 1579.43 321.117 1579.18 321.117 1578.88 321.117 1573.91 321.117 1569.11 321.117 1564.48 321.117 1559.85 321.117 1555.23 321.117 1550.63 321.117 1546.03 321.117 1541.39 321.117 1536.69L321.117 1526.71 317.621 1526.71C317.315 1526.71 317.069 1526.62 316.885 1526.44 316.701 1526.25 316.609 1526.01 316.609 1525.7 316.609 1523.92 316.609 1522.22 316.609 1520.59 316.609 1518.97 316.609 1517.27 316.609 1515.49ZM493.795 1510.89C494.225 1510.89 495.068 1510.89 496.325 1510.89 497.583 1510.89 499.009 1510.89 500.603 1510.89 502.198 1510.89 503.808 1510.89 505.433 1510.89 507.059 1510.89 508.5 1510.89 509.757 1510.89 511.015 1510.89 511.919 1510.89 512.471 1510.89 512.717 1510.89 512.901 1510.93 513.023 1511.03 513.146 1511.12 513.253 1511.22 513.345 1511.35 513.437 1511.47 513.483 1511.65 513.483 1511.9 513.483 1515.27 513.483 1518.74 513.483 1522.3 513.483 1525.85 513.483 1529.43 513.483 1533.01 513.483 1536.6 513.483 1540.2 513.483 1543.82 513.483 1547.44 513.483 1551.03 513.483 1554.59 513.483 1558.14 513.483 1561.61 513.483 1564.98 513.483 1565.54 513.514 1566 513.575 1566.36 513.637 1566.73 513.821 1567.07 514.127 1567.38 514.434 1567.68 514.802 1567.88 515.231 1567.97 515.661 1568.07 516.213 1568.11 516.887 1568.11 517.317 1568.11 517.838 1568.11 518.451 1568.11 519.065 1568.11 519.525 1568.11 519.831 1568.11L520.843 1568.11C520.843 1569.77 520.843 1571.56 520.843 1573.49 520.843 1575.43 520.843 1577.22 520.843 1578.88 520.843 1579.12 520.797 1579.3 520.705 1579.43 520.613 1579.55 520.506 1579.66 520.383 1579.75 520.261 1579.84 520.077 1579.89 519.831 1579.89 519.463 1579.89 518.85 1579.89 517.991 1579.89 517.133 1579.89 516.243 1579.89 515.323 1579.89 514.403 1579.89 513.637 1579.89 513.023 1579.89 511.122 1579.89 509.42 1579.61 507.917 1579.06 506.415 1578.51 505.157 1577.68 504.145 1576.58 503.133 1575.47 502.367 1574.06 501.845 1572.34 501.324 1570.63 501.063 1568.63 501.063 1566.36 501.063 1563.54 501.063 1560.63 501.063 1557.62 501.063 1554.62 501.063 1551.58 501.063 1548.52 501.063 1545.45 501.063 1542.38 501.063 1539.32 501.063 1536.25 501.063 1533.23 501.063 1530.25 501.063 1527.28 501.063 1524.44 501.063 1521.74L500.511 1521.74C500.266 1521.74 499.76 1521.74 498.993 1521.74 498.227 1521.74 497.445 1521.74 496.647 1521.74 495.85 1521.74 495.237 1521.74 494.807 1521.74 494.501 1521.74 494.255 1521.65 494.071 1521.47 493.887 1521.28 493.795 1521.04 493.795 1520.73 493.795 1519.08 493.795 1517.43 493.795 1515.81 493.795 1514.18 493.795 1512.54 493.795 1510.89Z" fill="url(#fill4)" fill-rule="evenodd"/><text fill="#000000" fill-opacity="0" font-family="Arial,Arial_MSFontService,sans-serif" font-size="70.104" direction="ltr" writing-mode="lr-tb" x="316.609" y="1572.23">Resolve</text><rect x="166.5" y="1070.5" width="588" height="395" stroke="#FFFFFF" stroke-width="22.9167" stroke-linecap="butt" stroke-linejoin="round" stroke-miterlimit="10" stroke-opacity="1" fill="#FFFFFF" fill-opacity="1"/><g clip-path="url(#clip5)"><g clip-path="url(#clip6)" filter="url(#fx0)" transform="translate(158 1249)"><g><g><rect x="24.5" y="24.5001" width="557" height="105" stroke="#17B5F9" stroke-width="9" stroke-linecap="butt" stroke-linejoin="round" stroke-miterlimit="10" stroke-opacity="1" fill="#17B5F9" fill-opacity="1"/></g></g></g></g><rect x="182.5" y="1273.5" width="557" height="105" stroke="#17B5F9" stroke-width="9.16667" stroke-linecap="butt" stroke-linejoin="round" stroke-miterlimit="10" stroke-opacity="1" fill="#17B5F9" fill-opacity="1"/><g clip-path="url(#clip7)"><g clip-path="url(#clip8)" filter="url(#fx1)" transform="translate(151 1201)"><g><g><path d="M24.7017 73.2267C38.831 66.1187 99.7911 51.7413 135.941 54.6014 172.091 57.4616 199.85 79.1695 241.601 90.3876 283.353 101.606 348.037 132.225 386.45 121.909 424.863 111.593 437.074 41.2004 472.08 28.4907 507.086 15.7809 572.552 36.7084 596.486 45.6507 596.882 61.8015 589.059 60.4607 589.456 76.6115 551.459 80.5902 578.748 76.5468 502.499 81.7919 425.105 83.2409 203.764 95.7514 123.944 99.0736 57.659 103.135 57.7987 118.67 24.7261 136.5 23.9543 114.644 25.4735 95.0828 24.7017 73.2267Z" stroke="#7030A0" stroke-width="9" stroke-linecap="butt" stroke-linejoin="round" stroke-miterlimit="10" stroke-opacity="1" fill="#7030A0" fill-rule="evenodd" fill-opacity="1"/></g></g></g></g><path d="M175.702 1274.23C189.831 1267.12 250.791 1252.74 286.941 1255.6 323.091 1258.46 350.85 1280.17 392.601 1291.39 434.353 1302.61 499.037 1333.23 537.45 1322.91 575.863 1312.59 588.074 1242.2 623.08 1229.49 658.086 1216.78 723.552 1237.71 747.486 1246.65 747.882 1262.8 740.059 1261.46 740.456 1277.61 702.459 1281.59 729.748 1277.55 653.499 1282.79 576.105 1284.24 354.764 1296.75 274.944 1300.07 208.659 1304.14 208.799 1319.67 175.726 1337.5 174.954 1315.64 176.473 1296.08 175.702 1274.23Z" stroke="#7030A0" stroke-width="9.16667" stroke-linecap="butt" stroke-linejoin="round" stroke-miterlimit="10" stroke-opacity="1" fill="#7030A0" fill-rule="evenodd" fill-opacity="1"/><g clip-path="url(#clip9)"><g clip-path="url(#clip10)" filter="url(#fx2)" transform="translate(199 1095)"><g><g><path d="M24.4999 277.599C37.9375 259.055 73.0808 290.329 113.524 248.147 153.966 205.965 211.448 23.4145 267.157 24.5053 322.867 25.5961 391.932 182.734 425.955 238.733 459.979 294.732 540.445 343.047 471.297 360.5L32.8984 359.409 24.4999 277.599Z" stroke="#FFC400" stroke-width="9" stroke-linecap="butt" stroke-linejoin="round" stroke-miterlimit="10" stroke-opacity="1" fill="#FFC400" fill-rule="evenodd" fill-opacity="1"/></g></g></g></g><path d="M223.5 1372.6C236.937 1354.06 272.081 1385.33 312.523 1343.15 352.966 1300.96 410.448 1118.41 466.157 1119.51 521.867 1120.6 590.932 1277.73 624.955 1333.73 658.979 1389.73 739.445 1438.05 670.297 1455.5L231.898 1454.41 223.5 1372.6Z" stroke="#FFC400" stroke-width="9.16667" stroke-linecap="butt" stroke-linejoin="round" stroke-miterlimit="10" stroke-opacity="1" fill="#FFC400" fill-rule="evenodd" fill-opacity="1"/><g clip-path="url(#clip11)"><g clip-path="url(#clip12)" filter="url(#fx3)" transform="translate(144 1286)"><g><g><path d="M24.4999 76.0702C38.641 58.8321 90.7685 66.0956 112.81 76.0702 134.851 86.0448 199.586 130.531 249.603 142.799 299.62 155.068 376.152 168.691 412.912 149.681 449.671 130.67 437.262 43.3491 470.161 28.7349 503.061 14.1207 586.356 40.3083 610.31 61.995 610.706 101.163 611.103 140.332 611.5 179.5L27.9629 179.5 24.4999 76.0702Z" stroke="#BFBFBF" stroke-width="9" stroke-linecap="butt" stroke-linejoin="round" stroke-miterlimit="10" stroke-opacity="1" fill="#BFBFBF" fill-rule="evenodd" fill-opacity="1"/></g></g></g></g><path d="M168.5 1362.07C182.641 1344.83 234.768 1352.1 256.81 1362.07 278.851 1372.04 343.586 1416.53 393.603 1428.8 443.62 1441.07 520.152 1454.69 556.912 1435.68 593.671 1416.67 581.262 1329.35 614.161 1314.73 647.061 1300.12 730.356 1326.31 754.31 1347.99 754.706 1387.16 755.103 1426.33 755.5 1465.5L171.963 1465.5 168.5 1362.07Z" stroke="#BFBFBF" stroke-width="9.16667" stroke-linecap="butt" stroke-linejoin="round" stroke-miterlimit="10" stroke-opacity="1" fill="#BFBFBF" fill-rule="evenodd" fill-opacity="1"/><rect x="166" y="1070" width="588" height="395" stroke="#FFFFFF" stroke-width="45.8333" stroke-linecap="butt" stroke-linejoin="round" stroke-miterlimit="10" stroke-opacity="1" fill="none"/></g></g></svg>