<svg width="642" height="577" xmlns="http://www.w3.org/2000/svg" xmlns:xlink="http://www.w3.org/1999/xlink" xml:space="preserve" overflow="hidden"><defs><filter id="fx0" x="-10%" y="-10%" width="120%" height="120%" filterUnits="userSpaceOnUse" primitiveUnits="userSpaceOnUse"><feComponentTransfer color-interpolation-filters="sRGB"><feFuncR type="discrete" tableValues="0.000000 0.000000"/><feFuncG type="discrete" tableValues="0.000000 0.000000"/><feFuncB type="discrete" tableValues="0.000000 0.000000"/><feFuncA type="linear" slope="0.400000" intercept="0.000000"/></feComponentTransfer><feGaussianBlur stdDeviation="6.111111 6.111111"/></filter><filter id="fx1" x="-10%" y="-10%" width="120%" height="120%" filterUnits="userSpaceOnUse" primitiveUnits="userSpaceOnUse"><feComponentTransfer color-interpolation-filters="sRGB"><feFuncR type="discrete" tableValues="0.000000 0.000000"/><feFuncG type="discrete" tableValues="0.000000 0.000000"/><feFuncB type="discrete" tableValues="0.000000 0.000000"/><feFuncA type="linear" slope="0.400000" intercept="0.000000"/></feComponentTransfer><feGaussianBlur stdDeviation="6.111111 6.111111"/></filter><filter id="fx2" x="-10%" y="-10%" width="120%" height="120%" filterUnits="userSpaceOnUse" primitiveUnits="userSpaceOnUse"><feComponentTransfer color-interpolation-filters="sRGB"><feFuncR type="discrete" tableValues="0.000000 0.000000"/><feFuncG type="discrete" tableValues="0.000000 0.000000"/><feFuncB type="discrete" tableValues="0.000000 0.000000"/><feFuncA type="linear" slope="0.400000" intercept="0.000000"/></feComponentTransfer><feGaussianBlur stdDeviation="6.111111 6.111111"/></filter><filter id="fx3" x="-10%" y="-10%" width="120%" height="120%" filterUnits="userSpaceOnUse" primitiveUnits="userSpaceOnUse"><feComponentTransfer color-interpolation-filters="sRGB"><feFuncR type="discrete" tableValues="0.000000 0.000000"/><feFuncG type="discrete" tableValues="0.000000 0.000000"/><feFuncB type="discrete" tableValues="0.000000 0.000000"/><feFuncA type="linear" slope="0.400000" intercept="0.000000"/></feComponentTransfer><feGaussianBlur stdDeviation="6.111111 6.111111"/></filter><linearGradient x1="1220.15" y1="1644.33" x2="1147.82" y2="1451.46" gradientUnits="userSpaceOnUse" spreadMethod="reflect" id="fill4"><stop offset="0" stop-color="#023B53" stop-opacity="1"/><stop offset="0.1" stop-color="#023B53" stop-opacity="1"/><stop offset="0.4" stop-color="#034E6E" stop-opacity="1"/><stop offset="0.9" stop-color="#6EA1B6" stop-opacity="1"/><stop offset="1" stop-color="#6EA1B6" stop-opacity="1"/></linearGradient><clipPath id="clip5"><path d="M905.5 1273.5 905.5 1378.5 1463.5 1378.5 1463.5 1273.5ZM861 1045 1503 1045 1503 1622 861 1622Z" fill-rule="evenodd" clip-rule="evenodd"/></clipPath><clipPath id="clip6"><rect x="1.66663" y="1.66675" width="603.667" height="150.667"/></clipPath><clipPath id="clip7"><path d="M1377.92 1225.55C1366.49 1225.24 1355.83 1226.31 1347.08 1229.49 1329.58 1235.85 1317.77 1256.62 1305.54 1277.1L1300.34 1285.49 1296.92 1285.64C1247.6 1287.78 1188.07 1290.77 1133.39 1293.53L1125.11 1293.95 1116.6 1291.39C1074.85 1280.17 1047.09 1258.46 1010.94 1255.6 974.791 1252.74 913.831 1267.12 899.702 1274.23 900.473 1296.08 898.954 1315.64 899.726 1337.5 932.799 1319.67 932.659 1304.14 998.944 1300.07 1018.9 1299.24 1047.7 1297.84 1080.88 1296.18L1125.11 1293.95 1133.24 1296.39C1174.11 1309.62 1227.84 1331.94 1261.45 1322.91 1275.85 1319.04 1286.58 1306.72 1296.19 1292.17L1300.34 1285.49 1320.66 1284.64C1343.42 1283.72 1362.99 1283.06 1377.5 1282.79 1453.75 1277.55 1426.46 1281.59 1464.46 1277.61 1464.06 1261.46 1471.88 1262.8 1471.49 1246.65 1453.54 1239.94 1412.22 1226.5 1377.92 1225.55ZM861 1045 1503 1045 1503 1622 861 1622Z" fill-rule="evenodd" clip-rule="evenodd"/></clipPath><clipPath id="clip8"><rect x="1.66022" y="-2.55249" width="617.71" height="162.93"/></clipPath><clipPath id="clip9"><path d="M1189.67 1119.51C1133.84 1118.41 1076.24 1300.96 1035.71 1343.15 995.183 1385.33 959.966 1354.06 946.5 1372.6L954.916 1454.41 1394.24 1455.5C1463.53 1438.05 1382.9 1389.73 1348.8 1333.73 1314.71 1277.73 1245.5 1120.6 1189.67 1119.51ZM861 1045 1503 1045 1503 1622 861 1622Z" fill-rule="evenodd" clip-rule="evenodd"/></clipPath><clipPath id="clip10"><rect x="1.57672" y="1.61328" width="540.757" height="381.721"/></clipPath><clipPath id="clip11"><path d="M1370.57 1310.72C1357.76 1309.98 1346.39 1311.08 1338.16 1314.73 1305.26 1329.35 1317.67 1416.67 1280.91 1435.68 1244.15 1454.69 1167.62 1441.07 1117.6 1428.8 1067.59 1416.53 1002.85 1372.04 980.81 1362.07 958.768 1352.1 906.641 1344.83 892.5 1362.07L895.963 1465.5 1479.5 1465.5C1479.1 1426.33 1478.71 1387.16 1478.31 1347.99 1460.34 1331.73 1409 1312.93 1370.57 1310.72ZM861 1045 1503 1045 1503 1622 861 1622Z" fill-rule="evenodd" clip-rule="evenodd"/></clipPath><clipPath id="clip12"><rect x="1.63251" y="-4.21265" width="632.726" height="206.546"/></clipPath></defs><g transform="translate(-861 -1045)"><g><path d="M1197.92 1540.6C1195.84 1540.6 1194.06 1541.02 1192.59 1541.85 1191.12 1542.67 1189.98 1543.87 1189.18 1545.43 1188.39 1547 1187.99 1548.88 1187.99 1551.09L1187.99 1559.19C1187.99 1560.9 1188.23 1562.42 1188.72 1563.74 1189.21 1565.06 1189.89 1566.21 1190.75 1567.19 1191.55 1567.99 1192.54 1568.6 1193.74 1569.03 1194.93 1569.46 1196.27 1569.68 1197.74 1569.68 1199.83 1569.68 1201.62 1569.26 1203.12 1568.43 1204.62 1567.61 1205.76 1566.39 1206.53 1564.8 1207.29 1563.2 1207.68 1561.33 1207.68 1559.19L1207.68 1551.09C1207.68 1549.19 1207.46 1547.58 1207.03 1546.26 1206.6 1544.94 1205.96 1543.85 1205.1 1543 1204.3 1542.14 1203.31 1541.52 1202.11 1541.16 1200.91 1540.79 1199.52 1540.6 1197.92 1540.6ZM1312.6 1539.78C1309.53 1539.78 1307.25 1540.53 1305.75 1542.03 1304.24 1543.53 1303.49 1545.97 1303.49 1549.34L1303.49 1550.63 1321.25 1550.63C1321.25 1550.39 1321.25 1550.17 1321.25 1549.99 1321.25 1549.8 1321.25 1549.59 1321.25 1549.34 1321.25 1547.56 1321.06 1546.05 1320.7 1544.79 1320.33 1543.53 1319.74 1542.54 1318.95 1541.8 1318.27 1541.06 1317.41 1540.54 1316.37 1540.24 1315.33 1539.93 1314.07 1539.78 1312.6 1539.78ZM1110.93 1539.78C1107.87 1539.78 1105.58 1540.53 1104.08 1542.03 1102.58 1543.53 1101.82 1545.97 1101.82 1549.34L1101.82 1550.63 1119.58 1550.63C1119.58 1550.39 1119.58 1550.17 1119.58 1549.99 1119.58 1549.8 1119.58 1549.59 1119.58 1549.34 1119.58 1547.56 1119.4 1546.05 1119.03 1544.79 1118.66 1543.53 1118.08 1542.54 1117.28 1541.8 1116.61 1541.06 1115.75 1540.54 1114.7 1540.24 1113.66 1539.93 1112.4 1539.78 1110.93 1539.78ZM1242.57 1530.39C1244.66 1530.39 1246.69 1530.39 1248.69 1530.39 1250.68 1530.39 1252.69 1530.39 1254.71 1530.39 1255.02 1530.39 1255.25 1530.45 1255.4 1530.58 1255.56 1530.7 1255.71 1530.85 1255.86 1531.04 1256.02 1531.22 1256.12 1531.46 1256.19 1531.77 1257.23 1535.57 1258.29 1539.42 1259.36 1543.32 1260.43 1547.21 1261.51 1551.4 1262.58 1555.88 1263.65 1560.35 1264.74 1565.38 1265.85 1570.96L1267.59 1570.96C1268.27 1567.65 1268.94 1564.51 1269.62 1561.53 1270.29 1558.56 1270.97 1555.71 1271.64 1552.98 1272.32 1550.25 1272.98 1547.63 1273.62 1545.11 1274.26 1542.6 1274.91 1540.11 1275.55 1537.66 1276.2 1535.21 1276.82 1532.78 1277.44 1530.39 1279.34 1530.39 1281.26 1530.39 1283.19 1530.39 1285.12 1530.39 1287.07 1530.39 1289.03 1530.39 1289.34 1530.39 1289.58 1530.47 1289.77 1530.62 1289.95 1530.77 1290.09 1530.97 1290.18 1531.22 1290.27 1531.46 1290.26 1531.74 1290.13 1532.05 1288.91 1536.03 1287.68 1540.02 1286.45 1544.01 1285.23 1547.99 1284.02 1551.98 1282.82 1555.97 1281.62 1559.95 1280.43 1563.94 1279.23 1567.93 1278.04 1571.91 1276.79 1575.9 1275.51 1579.89 1272.81 1579.89 1270.12 1579.89 1267.46 1579.89 1264.79 1579.89 1262.32 1579.89 1260.05 1579.89 1259.44 1579.89 1258.92 1579.8 1258.49 1579.61 1258.06 1579.43 1257.7 1579.09 1257.43 1578.6 1257.15 1578.11 1256.83 1577.34 1256.46 1576.3 1255.66 1573.54 1254.82 1570.7 1253.93 1567.79 1253.04 1564.88 1252.14 1561.89 1251.22 1558.82 1250.3 1555.75 1249.36 1552.66 1248.41 1549.53 1247.46 1546.4 1246.5 1543.23 1245.51 1540.01 1244.53 1536.79 1243.55 1533.58 1242.57 1530.39ZM1157.87 1529.47C1159.83 1529.47 1161.64 1529.55 1163.3 1529.7 1164.95 1529.85 1166.46 1530.05 1167.81 1530.3 1169.16 1530.54 1170.35 1530.82 1171.39 1531.13 1171.82 1531.25 1172.15 1531.39 1172.36 1531.54 1172.57 1531.69 1172.7 1531.89 1172.73 1532.14 1172.76 1532.38 1172.77 1532.75 1172.77 1533.24 1172.77 1534.53 1172.77 1536.14 1172.77 1538.07 1172.77 1540.01 1172.77 1541.8 1172.77 1543.46L1171.12 1543.46C1169.46 1543.03 1167.87 1542.66 1166.33 1542.35 1164.8 1542.04 1163.24 1541.83 1161.64 1541.71 1160.05 1541.58 1158.36 1541.52 1156.58 1541.52 1154.13 1541.52 1152.21 1541.69 1150.83 1542.03 1149.45 1542.37 1148.49 1542.81 1147.93 1543.36 1147.38 1543.92 1147.11 1544.56 1147.11 1545.3 1147.11 1545.97 1147.27 1546.57 1147.61 1547.09 1147.95 1547.61 1148.52 1548.02 1149.31 1548.33 1150.11 1548.64 1151.22 1548.91 1152.63 1549.16L1161.27 1550.45C1164.28 1550.82 1166.82 1551.6 1168.91 1552.79 1171 1553.99 1172.61 1555.55 1173.74 1557.49 1174.87 1559.42 1175.44 1561.73 1175.44 1564.43 1175.44 1567.74 1174.6 1570.63 1172.91 1573.08 1171.23 1575.53 1168.76 1577.43 1165.51 1578.78 1162.26 1580.13 1158.27 1580.81 1153.55 1580.81 1151.34 1580.81 1149.28 1580.73 1147.38 1580.58 1145.48 1580.42 1143.72 1580.21 1142.09 1579.93 1140.47 1579.66 1139.01 1579.34 1137.72 1578.97 1136.43 1578.6 1135.33 1578.2 1134.41 1577.77 1134.04 1577.65 1133.81 1577.5 1133.72 1577.31 1133.63 1577.13 1133.58 1576.79 1133.58 1576.3 1133.58 1574.89 1133.58 1573.2 1133.58 1571.24 1133.58 1569.28 1133.58 1567.38 1133.58 1565.54L1135.24 1565.54C1136.71 1566.15 1138.14 1566.65 1139.52 1567.05 1140.9 1567.45 1142.31 1567.77 1143.75 1568.02 1145.19 1568.26 1146.72 1568.45 1148.35 1568.57 1149.97 1568.69 1151.74 1568.76 1153.64 1568.76 1157.32 1568.76 1159.83 1568.34 1161.18 1567.51 1162.53 1566.69 1163.21 1565.72 1163.21 1564.62 1163.21 1563.94 1163.04 1563.33 1162.7 1562.78 1162.36 1562.22 1161.78 1561.75 1160.95 1561.35 1160.12 1560.95 1158.94 1560.63 1157.41 1560.38L1147.93 1559C1144.99 1558.51 1142.54 1557.67 1140.57 1556.47 1138.61 1555.28 1137.15 1553.76 1136.2 1551.92 1135.25 1550.08 1134.78 1548.02 1134.78 1545.76 1134.78 1543.18 1135.28 1540.89 1136.3 1538.9 1137.31 1536.91 1138.8 1535.21 1140.76 1533.8 1142.72 1532.38 1145.14 1531.31 1148.03 1530.58 1150.91 1529.84 1154.19 1529.47 1157.87 1529.47ZM1312.6 1529.29C1316.77 1529.29 1320.4 1530.15 1323.5 1531.86 1326.6 1533.58 1329.01 1535.97 1330.72 1539.04 1332.44 1542.11 1333.3 1545.69 1333.3 1549.8L1333.3 1557.44C1333.3 1557.62 1333.27 1557.79 1333.21 1557.95 1333.15 1558.1 1333.04 1558.21 1332.89 1558.27 1332.73 1558.33 1332.56 1558.36 1332.38 1558.36L1311.22 1558.36C1310.18 1558.36 1309.12 1558.36 1308.05 1558.36 1306.97 1558.36 1305.91 1558.36 1304.87 1558.36L1303.49 1558.36 1303.49 1560.57C1303.49 1561.55 1303.58 1562.47 1303.77 1563.33 1303.95 1564.19 1304.2 1564.95 1304.5 1565.63 1304.81 1566.3 1305.24 1566.88 1305.79 1567.38 1306.77 1568.36 1308.08 1569.06 1309.7 1569.49 1311.33 1569.92 1313.21 1570.14 1315.36 1570.14 1317.57 1570.14 1319.51 1570.01 1321.2 1569.77 1322.89 1569.52 1324.5 1569.22 1326.03 1568.85 1327.56 1568.48 1329.01 1568.02 1330.36 1567.47L1332.1 1567.47C1332.1 1569.06 1332.1 1570.64 1332.1 1572.21 1332.1 1573.77 1332.1 1575.35 1332.1 1576.94 1332.1 1577.07 1332.07 1577.19 1332.01 1577.31 1331.95 1577.43 1331.86 1577.56 1331.74 1577.68 1331.24 1578.23 1330.14 1578.75 1328.42 1579.24 1326.71 1579.73 1324.68 1580.15 1322.35 1580.49 1320.02 1580.82 1317.66 1580.99 1315.27 1580.99 1311.22 1580.99 1307.66 1580.52 1304.6 1579.57 1301.53 1578.61 1299.01 1577.25 1297.05 1575.47 1295.09 1573.69 1293.6 1571.53 1292.59 1568.99 1291.58 1566.44 1291.07 1563.57 1291.07 1560.38L1291.07 1549.9C1291.07 1546.77 1291.58 1543.95 1292.59 1541.43 1293.6 1538.92 1295.06 1536.75 1296.96 1534.95 1298.86 1533.14 1301.13 1531.74 1303.77 1530.76 1306.4 1529.78 1309.35 1529.29 1312.6 1529.29ZM1197.83 1529.29C1201.14 1529.29 1204.16 1529.81 1206.89 1530.85 1209.62 1531.89 1211.97 1533.35 1213.93 1535.22 1215.89 1537.09 1217.41 1539.32 1218.49 1541.89 1219.56 1544.47 1220.1 1547.32 1220.1 1550.45L1220.1 1559.74C1220.1 1563.91 1219.16 1567.59 1217.29 1570.78 1215.42 1573.97 1212.81 1576.47 1209.47 1578.28 1206.13 1580.09 1202.25 1580.99 1197.83 1580.99 1194.52 1580.99 1191.5 1580.47 1188.77 1579.43 1186.04 1578.38 1183.69 1576.93 1181.73 1575.06 1179.77 1573.19 1178.25 1570.96 1177.18 1568.39 1176.1 1565.81 1175.57 1562.96 1175.57 1559.83L1175.57 1550.54C1175.57 1546.37 1176.5 1542.69 1178.37 1539.5 1180.24 1536.31 1182.87 1533.81 1186.24 1532 1189.61 1530.19 1193.48 1529.29 1197.83 1529.29ZM1110.93 1529.29C1115.1 1529.29 1118.74 1530.15 1121.83 1531.86 1124.93 1533.58 1127.34 1535.97 1129.06 1539.04 1130.77 1542.11 1131.63 1545.69 1131.63 1549.8L1131.63 1557.44C1131.63 1557.62 1131.6 1557.79 1131.54 1557.95 1131.48 1558.1 1131.37 1558.21 1131.22 1558.27 1131.07 1558.33 1130.9 1558.36 1130.71 1558.36L1109.55 1558.36C1108.51 1558.36 1107.45 1558.36 1106.38 1558.36 1105.31 1558.36 1104.25 1558.36 1103.2 1558.36L1101.82 1558.36 1101.82 1560.57C1101.82 1561.55 1101.92 1562.47 1102.1 1563.33 1102.28 1564.19 1102.53 1564.95 1102.84 1565.63 1103.14 1566.3 1103.57 1566.88 1104.12 1567.38 1105.11 1568.36 1106.41 1569.06 1108.03 1569.49 1109.66 1569.92 1111.55 1570.14 1113.69 1570.14 1115.9 1570.14 1117.85 1570.01 1119.53 1569.77 1121.22 1569.52 1122.83 1569.22 1124.36 1568.85 1125.9 1568.48 1127.34 1568.02 1128.69 1567.47L1130.44 1567.47C1130.44 1569.06 1130.44 1570.64 1130.44 1572.21 1130.44 1573.77 1130.44 1575.35 1130.44 1576.94 1130.44 1577.07 1130.41 1577.19 1130.34 1577.31 1130.28 1577.43 1130.19 1577.56 1130.07 1577.68 1129.58 1578.23 1128.47 1578.75 1126.76 1579.24 1125.04 1579.73 1123.02 1580.15 1120.68 1580.49 1118.35 1580.82 1115.99 1580.99 1113.6 1580.99 1109.55 1580.99 1106 1580.52 1102.93 1579.57 1099.86 1578.61 1097.35 1577.25 1095.38 1575.47 1093.42 1573.69 1091.93 1571.53 1090.92 1568.99 1089.91 1566.44 1089.4 1563.57 1089.4 1560.38L1089.4 1549.9C1089.4 1546.77 1089.91 1543.95 1090.92 1541.43 1091.93 1538.92 1093.39 1536.75 1095.29 1534.95 1097.19 1533.14 1099.46 1531.74 1102.1 1530.76 1104.74 1529.78 1107.68 1529.29 1110.93 1529.29ZM1057.37 1526.71 1057.37 1530.9C1057.37 1532.89 1057.37 1534.81 1057.37 1536.65L1057.37 1546.77 1060.55 1546.77C1062.35 1546.77 1064.15 1546.77 1065.93 1546.77 1067.64 1546.77 1069.06 1546.52 1070.16 1546.03 1071.26 1545.54 1072.08 1544.76 1072.6 1543.69 1073.12 1542.61 1073.38 1541.31 1073.38 1539.78L1073.38 1533.8C1073.38 1532.63 1073.24 1531.62 1072.97 1530.76 1072.69 1529.9 1072.24 1529.16 1071.63 1528.55 1071.08 1528 1070.33 1527.55 1069.38 1527.22 1068.43 1526.88 1067.28 1526.71 1065.93 1526.71 1063.17 1526.71 1060.39 1526.71 1057.6 1526.71ZM1040.08 1515.49C1044.31 1515.49 1048.54 1515.49 1052.77 1515.49 1057 1515.49 1061.24 1515.49 1065.47 1515.49 1069.21 1515.49 1072.4 1515.92 1075.04 1516.78 1077.67 1517.63 1079.82 1518.91 1081.48 1520.59 1083.13 1522.28 1084.34 1524.29 1085.11 1526.62 1085.88 1528.95 1086.26 1531.56 1086.26 1534.44L1086.26 1539.59C1086.26 1542.41 1085.83 1544.94 1084.97 1547.18 1084.11 1549.42 1082.87 1551.32 1081.25 1552.89 1080.43 1553.67 1079.53 1554.35 1078.54 1554.94L1076.81 1555.74 1078.26 1558.31C1079.6 1560.74 1081.05 1563.39 1082.58 1566.27 1083.13 1567.19 1083.64 1567.82 1084.1 1568.16 1084.56 1568.49 1085.12 1568.66 1085.8 1568.66 1086.11 1568.66 1086.34 1568.66 1086.49 1568.66 1086.64 1568.66 1086.84 1568.66 1087.09 1568.66L1088.84 1568.66C1088.84 1570.5 1088.84 1572.21 1088.84 1573.77 1088.84 1575.33 1088.84 1577.04 1088.84 1578.88 1088.84 1579.18 1088.74 1579.43 1088.56 1579.61 1088.38 1579.8 1088.13 1579.89 1087.82 1579.89 1087.39 1579.89 1086.83 1579.89 1086.12 1579.89 1085.42 1579.89 1084.76 1579.89 1084.14 1579.89 1082.06 1579.89 1080.31 1579.72 1078.9 1579.38 1077.49 1579.04 1076.28 1578.43 1075.27 1577.54 1074.25 1576.65 1073.32 1575.41 1072.46 1573.82 1070.86 1570.69 1069.29 1567.57 1067.72 1564.48L1064.21 1557.62 1061.83 1557.62 1057.37 1557.62 1057.37 1558.96C1057.37 1562.73 1057.37 1566.7 1057.37 1570.87 1057.37 1572.53 1057.37 1574.12 1057.37 1575.66 1057.37 1577.19 1057.37 1578.6 1057.37 1579.89 1055.35 1579.89 1053.4 1579.89 1051.53 1579.89 1049.66 1579.89 1047.68 1579.89 1045.6 1579.89 1045.29 1579.89 1045.04 1579.8 1044.86 1579.61 1044.68 1579.43 1044.58 1579.18 1044.58 1578.88 1044.58 1573.91 1044.58 1569.11 1044.58 1564.48 1044.58 1559.85 1044.58 1555.23 1044.58 1550.63 1044.58 1546.03 1044.58 1541.39 1044.58 1536.69L1044.58 1526.71 1041.09 1526.71C1040.78 1526.71 1040.54 1526.62 1040.35 1526.44 1040.17 1526.25 1040.08 1526.01 1040.08 1525.7 1040.08 1523.92 1040.08 1522.22 1040.08 1520.59 1040.08 1518.97 1040.08 1517.27 1040.08 1515.49ZM1217.26 1510.89C1217.69 1510.89 1218.53 1510.89 1219.79 1510.89 1221.05 1510.89 1222.47 1510.89 1224.07 1510.89 1225.66 1510.89 1227.27 1510.89 1228.9 1510.89 1230.52 1510.89 1231.97 1510.89 1233.22 1510.89 1234.48 1510.89 1235.39 1510.89 1235.94 1510.89 1236.18 1510.89 1236.37 1510.93 1236.49 1511.03 1236.61 1511.12 1236.72 1511.22 1236.81 1511.35 1236.9 1511.47 1236.95 1511.65 1236.95 1511.9 1236.95 1515.27 1236.95 1518.74 1236.95 1522.3 1236.95 1525.85 1236.95 1529.43 1236.95 1533.01 1236.95 1536.6 1236.95 1540.2 1236.95 1543.82 1236.95 1547.44 1236.95 1551.03 1236.95 1554.59 1236.95 1558.14 1236.95 1561.61 1236.95 1564.98 1236.95 1565.54 1236.98 1566 1237.04 1566.36 1237.1 1566.73 1237.29 1567.07 1237.59 1567.38 1237.9 1567.68 1238.27 1567.88 1238.7 1567.97 1239.13 1568.07 1239.68 1568.11 1240.35 1568.11 1240.78 1568.11 1241.3 1568.11 1241.92 1568.11 1242.53 1568.11 1242.99 1568.11 1243.3 1568.11L1244.31 1568.11C1244.31 1569.77 1244.31 1571.56 1244.31 1573.49 1244.31 1575.43 1244.31 1577.22 1244.31 1578.88 1244.31 1579.12 1244.26 1579.3 1244.17 1579.43 1244.08 1579.55 1243.97 1579.66 1243.85 1579.75 1243.73 1579.84 1243.54 1579.89 1243.3 1579.89 1242.93 1579.89 1242.32 1579.89 1241.46 1579.89 1240.6 1579.89 1239.71 1579.89 1238.79 1579.89 1237.87 1579.89 1237.1 1579.89 1236.49 1579.89 1234.59 1579.89 1232.89 1579.61 1231.38 1579.06 1229.88 1578.51 1228.62 1577.68 1227.61 1576.58 1226.6 1575.47 1225.83 1574.06 1225.31 1572.34 1224.79 1570.63 1224.53 1568.63 1224.53 1566.36 1224.53 1563.54 1224.53 1560.63 1224.53 1557.62 1224.53 1554.62 1224.53 1551.58 1224.53 1548.52 1224.53 1545.45 1224.53 1542.38 1224.53 1539.32 1224.53 1536.25 1224.53 1533.23 1224.53 1530.25 1224.53 1527.28 1224.53 1524.44 1224.53 1521.74L1223.98 1521.74C1223.73 1521.74 1223.23 1521.74 1222.46 1521.74 1221.69 1521.74 1220.91 1521.74 1220.11 1521.74 1219.32 1521.74 1218.7 1521.74 1218.27 1521.74 1217.97 1521.74 1217.72 1521.65 1217.54 1521.47 1217.35 1521.28 1217.26 1521.04 1217.26 1520.73 1217.26 1519.08 1217.26 1517.43 1217.26 1515.81 1217.26 1514.18 1217.26 1512.54 1217.26 1510.89Z" fill="url(#fill4)" fill-rule="evenodd"/><text fill="#000000" fill-opacity="0" font-family="Arial,Arial_MSFontService,sans-serif" font-size="70.104" direction="ltr" writing-mode="lr-tb" x="1040.08" y="1572.23">Resolve</text><rect x="889.5" y="1070.5" width="589" height="395" stroke="#F8F9FB" stroke-width="22.9167" stroke-linecap="butt" stroke-linejoin="round" stroke-miterlimit="10" stroke-opacity="1" fill="#F8F9FB" fill-opacity="1"/><g clip-path="url(#clip5)"><g clip-path="url(#clip6)" filter="url(#fx0)" transform="translate(881 1249)"><g><g><rect x="24.4999" y="24.5001" width="558" height="105" stroke="#17B5F9" stroke-width="9" stroke-linecap="butt" stroke-linejoin="round" stroke-miterlimit="10" stroke-opacity="1" fill="#17B5F9" fill-opacity="1"/></g></g></g></g><rect x="905.5" y="1273.5" width="558" height="105" stroke="#17B5F9" stroke-width="9.16667" stroke-linecap="butt" stroke-linejoin="round" stroke-miterlimit="10" stroke-opacity="1" fill="#17B5F9" fill-opacity="1"/><g clip-path="url(#clip7)"><g clip-path="url(#clip8)" filter="url(#fx1)" transform="translate(875 1201)"><g><g><path d="M24.7017 73.2267C38.831 66.1187 99.791 51.7413 135.941 54.6014 172.091 57.4616 199.85 79.1695 241.601 90.3876 283.353 101.606 348.037 132.225 386.45 121.909 424.863 111.593 437.074 41.2004 472.08 28.4907 507.086 15.7809 572.552 36.7084 596.486 45.6507 596.882 61.8015 589.059 60.4607 589.456 76.6115 551.459 80.5902 578.748 76.5468 502.499 81.7919 425.105 83.2409 203.764 95.7514 123.944 99.0736 57.659 103.135 57.7987 118.67 24.726 136.5 23.9543 114.644 25.4734 95.0828 24.7017 73.2267Z" stroke="#7030A0" stroke-width="9" stroke-linecap="butt" stroke-linejoin="round" stroke-miterlimit="10" stroke-opacity="1" fill="#7030A0" fill-rule="evenodd" fill-opacity="1"/></g></g></g></g><path d="M899.702 1274.23C913.831 1267.12 974.791 1252.74 1010.94 1255.6 1047.09 1258.46 1074.85 1280.17 1116.6 1291.39 1158.35 1302.61 1223.04 1333.23 1261.45 1322.91 1299.86 1312.59 1312.07 1242.2 1347.08 1229.49 1382.09 1216.78 1447.55 1237.71 1471.49 1246.65 1471.88 1262.8 1464.06 1261.46 1464.46 1277.61 1426.46 1281.59 1453.75 1277.55 1377.5 1282.79 1300.11 1284.24 1078.76 1296.75 998.944 1300.07 932.659 1304.14 932.799 1319.67 899.726 1337.5 898.954 1315.64 900.473 1296.08 899.702 1274.23Z" stroke="#7030A0" stroke-width="9.16667" stroke-linecap="butt" stroke-linejoin="round" stroke-miterlimit="10" stroke-opacity="1" fill="#7030A0" fill-rule="evenodd" fill-opacity="1"/><g clip-path="url(#clip9)"><g clip-path="url(#clip10)" filter="url(#fx2)" transform="translate(922 1095)"><g><g><path d="M24.4998 277.599C37.9657 259.055 73.1832 290.329 113.711 248.147 154.239 205.965 211.842 23.4145 267.669 24.5053 323.496 25.5961 392.707 182.734 426.802 238.733 460.897 294.732 541.533 343.047 472.24 360.5L32.916 359.409 24.4998 277.599Z" stroke="#FFC400" stroke-width="9" stroke-linecap="butt" stroke-linejoin="round" stroke-miterlimit="10" stroke-opacity="1" fill="#FFC400" fill-rule="evenodd" fill-opacity="1"/></g></g></g></g><path d="M946.5 1372.6C959.966 1354.06 995.183 1385.33 1035.71 1343.15 1076.24 1300.96 1133.84 1118.41 1189.67 1119.51 1245.5 1120.6 1314.71 1277.73 1348.8 1333.73 1382.9 1389.73 1463.53 1438.05 1394.24 1455.5L954.916 1454.41 946.5 1372.6Z" stroke="#FFC400" stroke-width="9.16667" stroke-linecap="butt" stroke-linejoin="round" stroke-miterlimit="10" stroke-opacity="1" fill="#FFC400" fill-rule="evenodd" fill-opacity="1"/><g clip-path="url(#clip11)"><g clip-path="url(#clip12)" filter="url(#fx3)" transform="translate(868 1286)"><g><g><path d="M24.4999 76.0702C38.6409 58.8321 90.7684 66.0956 112.81 76.0702 134.851 86.0448 199.586 130.531 249.603 142.799 299.62 155.068 376.152 168.691 412.911 149.681 449.671 130.67 437.262 43.3491 470.161 28.7349 503.061 14.1207 586.356 40.3083 610.31 61.995 610.706 101.163 611.103 140.332 611.5 179.5L27.9629 179.5 24.4999 76.0702Z" stroke="#BFBFBF" stroke-width="9" stroke-linecap="butt" stroke-linejoin="round" stroke-miterlimit="10" stroke-opacity="1" fill="#BFBFBF" fill-rule="evenodd" fill-opacity="1"/></g></g></g></g><path d="M892.5 1362.07C906.641 1344.83 958.768 1352.1 980.81 1362.07 1002.85 1372.04 1067.59 1416.53 1117.6 1428.8 1167.62 1441.07 1244.15 1454.69 1280.91 1435.68 1317.67 1416.67 1305.26 1329.35 1338.16 1314.73 1371.06 1300.12 1454.36 1326.31 1478.31 1347.99 1478.71 1387.16 1479.1 1426.33 1479.5 1465.5L895.963 1465.5 892.5 1362.07Z" stroke="#BFBFBF" stroke-width="9.16667" stroke-linecap="butt" stroke-linejoin="round" stroke-miterlimit="10" stroke-opacity="1" fill="#BFBFBF" fill-rule="evenodd" fill-opacity="1"/><rect x="889" y="1070" width="589" height="395" stroke="#F8F9FB" stroke-width="45.8333" stroke-linecap="butt" stroke-linejoin="round" stroke-miterlimit="10" stroke-opacity="1" fill="none"/></g></g></svg>