<svg width="642" height="577" xmlns="http://www.w3.org/2000/svg" xmlns:xlink="http://www.w3.org/1999/xlink" xml:space="preserve" overflow="hidden"><defs><filter id="fx0" x="-10%" y="-10%" width="120%" height="120%" filterUnits="userSpaceOnUse" primitiveUnits="userSpaceOnUse"><feComponentTransfer color-interpolation-filters="sRGB"><feFuncR type="discrete" tableValues="0.000000 0.000000"/><feFuncG type="discrete" tableValues="0.000000 0.000000"/><feFuncB type="discrete" tableValues="0.000000 0.000000"/><feFuncA type="linear" slope="0.400000" intercept="0.000000"/></feComponentTransfer><feGaussianBlur stdDeviation="6.111111 6.111111"/></filter><filter id="fx1" x="-10%" y="-10%" width="120%" height="120%" filterUnits="userSpaceOnUse" primitiveUnits="userSpaceOnUse"><feComponentTransfer color-interpolation-filters="sRGB"><feFuncR type="discrete" tableValues="0.000000 0.000000"/><feFuncG type="discrete" tableValues="0.000000 0.000000"/><feFuncB type="discrete" tableValues="0.000000 0.000000"/><feFuncA type="linear" slope="0.400000" intercept="0.000000"/></feComponentTransfer><feGaussianBlur stdDeviation="6.111111 6.111111"/></filter><filter id="fx2" x="-10%" y="-10%" width="120%" height="120%" filterUnits="userSpaceOnUse" primitiveUnits="userSpaceOnUse"><feComponentTransfer color-interpolation-filters="sRGB"><feFuncR type="discrete" tableValues="0.000000 0.000000"/><feFuncG type="discrete" tableValues="0.000000 0.000000"/><feFuncB type="discrete" tableValues="0.000000 0.000000"/><feFuncA type="linear" slope="0.400000" intercept="0.000000"/></feComponentTransfer><feGaussianBlur stdDeviation="6.111111 6.111111"/></filter><filter id="fx3" x="-10%" y="-10%" width="120%" height="120%" filterUnits="userSpaceOnUse" primitiveUnits="userSpaceOnUse"><feComponentTransfer color-interpolation-filters="sRGB"><feFuncR type="discrete" tableValues="0.000000 0.000000"/><feFuncG type="discrete" tableValues="0.000000 0.000000"/><feFuncB type="discrete" tableValues="0.000000 0.000000"/><feFuncA type="linear" slope="0.400000" intercept="0.000000"/></feComponentTransfer><feGaussianBlur stdDeviation="6.111111 6.111111"/></filter><linearGradient x1="1943.61" y1="1644.33" x2="1871.28" y2="1451.46" gradientUnits="userSpaceOnUse" spreadMethod="reflect" id="fill4"><stop offset="0" stop-color="#BFBFBF" stop-opacity="1"/><stop offset="0.1" stop-color="#BFBFBF" stop-opacity="1"/><stop offset="0.9" stop-color="#F2F2F2" stop-opacity="1"/><stop offset="1" stop-color="#F2F2F2" stop-opacity="1"/></linearGradient><clipPath id="clip5"><path d="M1629.5 1273.5 1629.5 1378.5 2186.5 1378.5 2186.5 1273.5ZM1585 1045 2227 1045 2227 1622 1585 1622Z" fill-rule="evenodd" clip-rule="evenodd"/></clipPath><clipPath id="clip6"><rect x="1.6665" y="1.66675" width="602.667" height="150.667"/></clipPath><clipPath id="clip7"><path d="M2100.92 1225.55C2089.49 1225.24 2078.83 1226.31 2070.08 1229.49 2052.58 1235.85 2040.77 1256.62 2028.54 1277.1L2023.34 1285.49 2019.92 1285.64C1970.6 1287.78 1911.07 1290.77 1856.39 1293.53L1848.11 1293.95 1839.6 1291.39C1797.85 1280.17 1770.09 1258.46 1733.94 1255.6 1697.79 1252.74 1636.83 1267.12 1622.7 1274.23 1623.47 1296.08 1621.95 1315.64 1622.73 1337.5 1655.8 1319.67 1655.66 1304.14 1721.94 1300.07 1741.9 1299.24 1770.7 1297.84 1803.88 1296.18L1848.11 1293.95 1856.24 1296.39C1897.11 1309.62 1950.84 1331.94 1984.45 1322.91 1998.85 1319.04 2009.58 1306.72 2019.19 1292.17L2023.34 1285.49 2043.66 1284.64C2066.42 1283.72 2085.99 1283.06 2100.5 1282.79 2176.75 1277.55 2149.46 1281.59 2187.46 1277.61 2187.06 1261.46 2194.88 1262.8 2194.49 1246.65 2176.54 1239.94 2135.22 1226.5 2100.92 1225.55ZM1585 1045 2227 1045 2227 1622 1585 1622Z" fill-rule="evenodd" clip-rule="evenodd"/></clipPath><clipPath id="clip8"><rect x="1.66016" y="-2.55249" width="617.71" height="162.93"/></clipPath><clipPath id="clip9"><path d="M1913.16 1119.51C1857.45 1118.41 1799.97 1300.96 1759.52 1343.15 1719.08 1385.33 1683.94 1354.06 1670.5 1372.6L1678.9 1454.41 2117.3 1455.5C2186.44 1438.05 2105.98 1389.73 2071.96 1333.73 2037.93 1277.73 1968.87 1120.6 1913.16 1119.51ZM1585 1045 2227 1045 2227 1622 1585 1622Z" fill-rule="evenodd" clip-rule="evenodd"/></clipPath><clipPath id="clip10"><rect x="1.57739" y="1.61328" width="539.756" height="381.721"/></clipPath><clipPath id="clip11"><path d="M2093.57 1310.72C2080.76 1309.98 2069.39 1311.08 2061.16 1314.73 2028.26 1329.35 2040.67 1416.67 2003.91 1435.68 1967.15 1454.69 1890.62 1441.07 1840.6 1428.8 1790.59 1416.53 1725.85 1372.04 1703.81 1362.07 1681.77 1352.1 1629.64 1344.83 1615.5 1362.07L1618.96 1465.5 2202.5 1465.5C2202.1 1426.33 2201.71 1387.16 2201.31 1347.99 2183.34 1331.73 2132 1312.93 2093.57 1310.72ZM1585 1045 2227 1045 2227 1622 1585 1622Z" fill-rule="evenodd" clip-rule="evenodd"/></clipPath><clipPath id="clip12"><rect x="1.63281" y="-4.21265" width="632.726" height="206.546"/></clipPath></defs><g transform="translate(-1585 -1045)"><g><path d="M1921.39 1540.6C1919.3 1540.6 1917.53 1541.02 1916.05 1541.85 1914.58 1542.67 1913.45 1543.87 1912.65 1545.43 1911.85 1547 1911.45 1548.88 1911.45 1551.09L1911.45 1559.19C1911.45 1560.9 1911.7 1562.42 1912.19 1563.74 1912.68 1565.06 1913.35 1566.21 1914.21 1567.19 1915.01 1567.99 1916.01 1568.6 1917.2 1569.03 1918.4 1569.46 1919.73 1569.68 1921.21 1569.68 1923.29 1569.68 1925.08 1569.26 1926.59 1568.43 1928.09 1567.61 1929.22 1566.39 1929.99 1564.8 1930.76 1563.2 1931.14 1561.33 1931.14 1559.19L1931.14 1551.09C1931.14 1549.19 1930.93 1547.58 1930.5 1546.26 1930.07 1544.94 1929.42 1543.85 1928.57 1543 1927.77 1542.14 1926.77 1541.52 1925.58 1541.16 1924.38 1540.79 1922.98 1540.6 1921.39 1540.6ZM2036.06 1539.78C2033 1539.78 2030.71 1540.53 2029.21 1542.03 2027.71 1543.53 2026.96 1545.97 2026.96 1549.34L2026.96 1550.63 2044.71 1550.63C2044.71 1550.39 2044.71 1550.17 2044.71 1549.99 2044.71 1549.8 2044.71 1549.59 2044.71 1549.34 2044.71 1547.56 2044.53 1546.05 2044.16 1544.79 2043.79 1543.53 2043.21 1542.54 2042.41 1541.8 2041.74 1541.06 2040.88 1540.54 2039.84 1540.24 2038.79 1539.93 2037.54 1539.78 2036.06 1539.78ZM1834.4 1539.78C1831.33 1539.78 1829.05 1540.53 1827.54 1542.03 1826.04 1543.53 1825.29 1545.97 1825.29 1549.34L1825.29 1550.63 1843.05 1550.63C1843.05 1550.39 1843.05 1550.17 1843.05 1549.99 1843.05 1549.8 1843.05 1549.59 1843.05 1549.34 1843.05 1547.56 1842.86 1546.05 1842.49 1544.79 1842.13 1543.53 1841.54 1542.54 1840.75 1541.8 1840.07 1541.06 1839.21 1540.54 1838.17 1540.24 1837.13 1539.93 1835.87 1539.78 1834.4 1539.78ZM1966.04 1530.39C1968.12 1530.39 1970.16 1530.39 1972.15 1530.39 1974.15 1530.39 1976.16 1530.39 1978.18 1530.39 1978.49 1530.39 1978.72 1530.45 1978.87 1530.58 1979.02 1530.7 1979.18 1530.85 1979.33 1531.04 1979.48 1531.22 1979.59 1531.46 1979.65 1531.77 1980.69 1535.57 1981.75 1539.42 1982.83 1543.32 1983.9 1547.21 1984.97 1551.4 1986.05 1555.88 1987.12 1560.35 1988.21 1565.38 1989.31 1570.96L1991.06 1570.96C1991.73 1567.65 1992.41 1564.51 1993.08 1561.53 1993.76 1558.56 1994.43 1555.71 1995.11 1552.98 1995.78 1550.25 1996.44 1547.63 1997.09 1545.11 1997.73 1542.6 1998.37 1540.11 1999.02 1537.66 1999.66 1535.21 2000.29 1532.78 2000.9 1530.39 2002.8 1530.39 2004.72 1530.39 2006.65 1530.39 2008.59 1530.39 2010.53 1530.39 2012.5 1530.39 2012.8 1530.39 2013.05 1530.47 2013.23 1530.62 2013.42 1530.77 2013.55 1530.97 2013.65 1531.22 2013.74 1531.46 2013.72 1531.74 2013.6 1532.05 2012.37 1536.03 2011.15 1540.02 2009.92 1544.01 2008.69 1547.99 2007.48 1551.98 2006.29 1555.97 2005.09 1559.95 2003.89 1563.94 2002.7 1567.93 2001.5 1571.91 2000.26 1575.9 1998.97 1579.89 1996.27 1579.89 1993.59 1579.89 1990.92 1579.89 1988.25 1579.89 1985.78 1579.89 1983.52 1579.89 1982.9 1579.89 1982.38 1579.8 1981.95 1579.61 1981.52 1579.43 1981.17 1579.09 1980.89 1578.6 1980.62 1578.11 1980.3 1577.34 1979.93 1576.3 1979.13 1573.54 1978.29 1570.7 1977.4 1567.79 1976.51 1564.88 1975.6 1561.89 1974.68 1558.82 1973.76 1555.75 1972.83 1552.66 1971.88 1549.53 1970.93 1546.4 1969.96 1543.23 1968.98 1540.01 1968 1536.79 1967.02 1533.58 1966.04 1530.39ZM1881.34 1529.47C1883.3 1529.47 1885.11 1529.55 1886.76 1529.7 1888.42 1529.85 1889.92 1530.05 1891.27 1530.3 1892.62 1530.54 1893.82 1530.82 1894.86 1531.13 1895.29 1531.25 1895.61 1531.39 1895.83 1531.54 1896.04 1531.69 1896.16 1531.89 1896.19 1532.14 1896.22 1532.38 1896.24 1532.75 1896.24 1533.24 1896.24 1534.53 1896.24 1536.14 1896.24 1538.07 1896.24 1540.01 1896.24 1541.8 1896.24 1543.46L1894.58 1543.46C1892.93 1543.03 1891.33 1542.66 1889.8 1542.35 1888.27 1542.04 1886.7 1541.83 1885.11 1541.71 1883.51 1541.58 1881.83 1541.52 1880.05 1541.52 1877.59 1541.52 1875.68 1541.69 1874.3 1542.03 1872.92 1542.37 1871.95 1542.81 1871.4 1543.36 1870.85 1543.92 1870.57 1544.56 1870.57 1545.3 1870.57 1545.97 1870.74 1546.57 1871.08 1547.09 1871.41 1547.61 1871.98 1548.02 1872.78 1548.33 1873.58 1548.64 1874.68 1548.91 1876.09 1549.16L1884.74 1550.45C1887.74 1550.82 1890.29 1551.6 1892.38 1552.79 1894.46 1553.99 1896.07 1555.55 1897.21 1557.49 1898.34 1559.42 1898.91 1561.73 1898.91 1564.43 1898.91 1567.74 1898.06 1570.63 1896.38 1573.08 1894.69 1575.53 1892.22 1577.43 1888.97 1578.78 1885.72 1580.13 1881.73 1580.81 1877.01 1580.81 1874.8 1580.81 1872.75 1580.73 1870.85 1580.58 1868.95 1580.42 1867.18 1580.21 1865.56 1579.93 1863.93 1579.66 1862.48 1579.34 1861.19 1578.97 1859.9 1578.6 1858.8 1578.2 1857.88 1577.77 1857.51 1577.65 1857.28 1577.5 1857.19 1577.31 1857.09 1577.13 1857.05 1576.79 1857.05 1576.3 1857.05 1574.89 1857.05 1573.2 1857.05 1571.24 1857.05 1569.28 1857.05 1567.38 1857.05 1565.54L1858.7 1565.54C1860.18 1566.15 1861.6 1566.65 1862.98 1567.05 1864.36 1567.45 1865.77 1567.77 1867.21 1568.02 1868.65 1568.26 1870.19 1568.45 1871.81 1568.57 1873.44 1568.69 1875.2 1568.76 1877.1 1568.76 1880.78 1568.76 1883.3 1568.34 1884.65 1567.51 1886 1566.69 1886.67 1565.72 1886.67 1564.62 1886.67 1563.94 1886.5 1563.33 1886.17 1562.78 1885.83 1562.22 1885.25 1561.75 1884.42 1561.35 1883.59 1560.95 1882.41 1560.63 1880.88 1560.38L1871.4 1559C1868.46 1558.51 1866 1557.67 1864.04 1556.47 1862.08 1555.28 1860.62 1553.76 1859.67 1551.92 1858.72 1550.08 1858.24 1548.02 1858.24 1545.76 1858.24 1543.18 1858.75 1540.89 1859.76 1538.9 1860.77 1536.91 1862.26 1535.21 1864.22 1533.8 1866.19 1532.38 1868.61 1531.31 1871.49 1530.58 1874.37 1529.84 1877.66 1529.47 1881.34 1529.47ZM2036.06 1529.29C2040.24 1529.29 2043.87 1530.15 2046.97 1531.86 2050.06 1533.58 2052.47 1535.97 2054.19 1539.04 2055.91 1542.11 2056.76 1545.69 2056.76 1549.8L2056.76 1557.44C2056.76 1557.62 2056.73 1557.79 2056.67 1557.95 2056.61 1558.1 2056.5 1558.21 2056.35 1558.27 2056.2 1558.33 2056.03 1558.36 2055.84 1558.36L2034.68 1558.36C2033.64 1558.36 2032.58 1558.36 2031.51 1558.36 2030.44 1558.36 2029.38 1558.36 2028.34 1558.36L2026.96 1558.36 2026.96 1560.57C2026.96 1561.55 2027.05 1562.47 2027.23 1563.33 2027.42 1564.19 2027.66 1564.95 2027.97 1565.63 2028.28 1566.3 2028.7 1566.88 2029.26 1567.38 2030.24 1568.36 2031.54 1569.06 2033.17 1569.49 2034.79 1569.92 2036.68 1570.14 2038.82 1570.14 2041.03 1570.14 2042.98 1570.01 2044.67 1569.77 2046.35 1569.52 2047.96 1569.22 2049.5 1568.85 2051.03 1568.48 2052.47 1568.02 2053.82 1567.47L2055.57 1567.47C2055.57 1569.06 2055.57 1570.64 2055.57 1572.21 2055.57 1573.77 2055.57 1575.35 2055.57 1576.94 2055.57 1577.07 2055.54 1577.19 2055.48 1577.31 2055.42 1577.43 2055.32 1577.56 2055.2 1577.68 2054.71 1578.23 2053.61 1578.75 2051.89 1579.24 2050.17 1579.73 2048.15 1580.15 2045.82 1580.49 2043.49 1580.82 2041.12 1580.99 2038.73 1580.99 2034.68 1580.99 2031.13 1580.52 2028.06 1579.57 2024.99 1578.61 2022.48 1577.25 2020.52 1575.47 2018.55 1573.69 2017.07 1571.53 2016.05 1568.99 2015.04 1566.44 2014.54 1563.57 2014.54 1560.38L2014.54 1549.9C2014.54 1546.77 2015.04 1543.95 2016.05 1541.43 2017.07 1538.92 2018.52 1536.75 2020.42 1534.95 2022.33 1533.14 2024.6 1531.74 2027.23 1530.76 2029.87 1529.78 2032.81 1529.29 2036.06 1529.29ZM1921.3 1529.29C1924.61 1529.29 1927.63 1529.81 1930.36 1530.85 1933.09 1531.89 1935.43 1533.35 1937.4 1535.22 1939.36 1537.09 1940.88 1539.32 1941.95 1541.89 1943.02 1544.47 1943.56 1547.32 1943.56 1550.45L1943.56 1559.74C1943.56 1563.91 1942.63 1567.59 1940.76 1570.78 1938.88 1573.97 1936.28 1576.47 1932.94 1578.28 1929.59 1580.09 1925.71 1580.99 1921.3 1580.99 1917.99 1580.99 1914.96 1580.47 1912.24 1579.43 1909.51 1578.38 1907.16 1576.93 1905.2 1575.06 1903.23 1573.19 1901.72 1570.96 1900.64 1568.39 1899.57 1565.81 1899.03 1562.96 1899.03 1559.83L1899.03 1550.54C1899.03 1546.37 1899.97 1542.69 1901.84 1539.5 1903.71 1536.31 1906.33 1533.81 1909.71 1532 1913.08 1530.19 1916.94 1529.29 1921.3 1529.29ZM1834.4 1529.29C1838.57 1529.29 1842.2 1530.15 1845.3 1531.86 1848.4 1533.58 1850.8 1535.97 1852.52 1539.04 1854.24 1542.11 1855.1 1545.69 1855.1 1549.8L1855.1 1557.44C1855.1 1557.62 1855.07 1557.79 1855.01 1557.95 1854.94 1558.1 1854.84 1558.21 1854.68 1558.27 1854.53 1558.33 1854.36 1558.36 1854.18 1558.36L1833.02 1558.36C1831.98 1558.36 1830.92 1558.36 1829.84 1558.36 1828.77 1558.36 1827.71 1558.36 1826.67 1558.36L1825.29 1558.36 1825.29 1560.57C1825.29 1561.55 1825.38 1562.47 1825.57 1563.33 1825.75 1564.19 1826 1564.95 1826.3 1565.63 1826.61 1566.3 1827.04 1566.88 1827.59 1567.38 1828.57 1568.36 1829.87 1569.06 1831.5 1569.49 1833.13 1569.92 1835.01 1570.14 1837.16 1570.14 1839.37 1570.14 1841.31 1570.01 1843 1569.77 1844.69 1569.52 1846.3 1569.22 1847.83 1568.85 1849.36 1568.48 1850.8 1568.02 1852.15 1567.47L1853.9 1567.47C1853.9 1569.06 1853.9 1570.64 1853.9 1572.21 1853.9 1573.77 1853.9 1575.35 1853.9 1576.94 1853.9 1577.07 1853.87 1577.19 1853.81 1577.31 1853.75 1577.43 1853.66 1577.56 1853.53 1577.68 1853.04 1578.23 1851.94 1578.75 1850.22 1579.24 1848.5 1579.73 1846.48 1580.15 1844.15 1580.49 1841.82 1580.82 1839.46 1580.99 1837.07 1580.99 1833.02 1580.99 1829.46 1580.52 1826.39 1579.57 1823.33 1578.61 1820.81 1577.25 1818.85 1575.47 1816.89 1573.69 1815.4 1571.53 1814.39 1568.99 1813.38 1566.44 1812.87 1563.57 1812.87 1560.38L1812.87 1549.9C1812.87 1546.77 1813.38 1543.95 1814.39 1541.43 1815.4 1538.92 1816.86 1536.75 1818.76 1534.95 1820.66 1533.14 1822.93 1531.74 1825.57 1530.76 1828.2 1529.78 1831.15 1529.29 1834.4 1529.29ZM1780.84 1526.71 1780.84 1530.9C1780.84 1532.89 1780.84 1534.81 1780.84 1536.65L1780.84 1546.77 1784.01 1546.77C1785.82 1546.77 1787.61 1546.77 1789.39 1546.77 1791.11 1546.77 1792.52 1546.52 1793.62 1546.03 1794.73 1545.54 1795.54 1544.76 1796.06 1543.69 1796.58 1542.61 1796.84 1541.31 1796.84 1539.78L1796.84 1533.8C1796.84 1532.63 1796.71 1531.62 1796.43 1530.76 1796.15 1529.9 1795.71 1529.16 1795.1 1528.55 1794.54 1528 1793.79 1527.55 1792.84 1527.22 1791.89 1526.88 1790.74 1526.71 1789.39 1526.71 1786.63 1526.71 1783.86 1526.71 1781.07 1526.71ZM1763.54 1515.49C1767.77 1515.49 1772 1515.49 1776.24 1515.49 1780.47 1515.49 1784.7 1515.49 1788.93 1515.49 1792.67 1515.49 1795.86 1515.92 1798.5 1516.78 1801.14 1517.63 1803.28 1518.91 1804.94 1520.59 1806.6 1522.28 1807.81 1524.29 1808.57 1526.62 1809.34 1528.95 1809.72 1531.56 1809.72 1534.44L1809.72 1539.59C1809.72 1542.41 1809.3 1544.94 1808.44 1547.18 1807.58 1549.42 1806.34 1551.32 1804.71 1552.89 1803.9 1553.67 1803 1554.35 1802.01 1554.94L1800.28 1555.74 1801.72 1558.31C1803.07 1560.74 1804.51 1563.39 1806.04 1566.27 1806.6 1567.19 1807.1 1567.82 1807.56 1568.16 1808.02 1568.49 1808.59 1568.66 1809.26 1568.66 1809.57 1568.66 1809.8 1568.66 1809.95 1568.66 1810.11 1568.66 1810.31 1568.66 1810.55 1568.66L1812.3 1568.66C1812.3 1570.5 1812.3 1572.21 1812.3 1573.77 1812.3 1575.33 1812.3 1577.04 1812.3 1578.88 1812.3 1579.18 1812.21 1579.43 1812.02 1579.61 1811.84 1579.8 1811.6 1579.89 1811.29 1579.89 1810.86 1579.89 1810.29 1579.89 1809.59 1579.89 1808.88 1579.89 1808.22 1579.89 1807.61 1579.89 1805.52 1579.89 1803.78 1579.72 1802.36 1579.38 1800.95 1579.04 1799.74 1578.43 1798.73 1577.54 1797.72 1576.65 1796.78 1575.41 1795.92 1573.82 1794.33 1570.69 1792.75 1567.57 1791.19 1564.48L1787.67 1557.62 1785.3 1557.62 1780.84 1557.62 1780.84 1558.96C1780.84 1562.73 1780.84 1566.7 1780.84 1570.87 1780.84 1572.53 1780.84 1574.12 1780.84 1575.66 1780.84 1577.19 1780.84 1578.6 1780.84 1579.89 1778.81 1579.89 1776.87 1579.89 1774.99 1579.89 1773.12 1579.89 1771.15 1579.89 1769.06 1579.89 1768.75 1579.89 1768.51 1579.8 1768.32 1579.61 1768.14 1579.43 1768.05 1579.18 1768.05 1578.88 1768.05 1573.91 1768.05 1569.11 1768.05 1564.48 1768.05 1559.85 1768.05 1555.23 1768.05 1550.63 1768.05 1546.03 1768.05 1541.39 1768.05 1536.69L1768.05 1526.71 1764.55 1526.71C1764.25 1526.71 1764 1526.62 1763.82 1526.44 1763.63 1526.25 1763.54 1526.01 1763.54 1525.7 1763.54 1523.92 1763.54 1522.22 1763.54 1520.59 1763.54 1518.97 1763.54 1517.27 1763.54 1515.49ZM1940.73 1510.89C1941.16 1510.89 1942 1510.89 1943.26 1510.89 1944.51 1510.89 1945.94 1510.89 1947.53 1510.89 1949.13 1510.89 1950.74 1510.89 1952.36 1510.89 1953.99 1510.89 1955.43 1510.89 1956.69 1510.89 1957.95 1510.89 1958.85 1510.89 1959.4 1510.89 1959.65 1510.89 1959.83 1510.93 1959.95 1511.03 1960.08 1511.12 1960.18 1511.22 1960.28 1511.35 1960.37 1511.47 1960.41 1511.65 1960.41 1511.9 1960.41 1515.27 1960.41 1518.74 1960.41 1522.3 1960.41 1525.85 1960.41 1529.43 1960.41 1533.01 1960.41 1536.6 1960.41 1540.2 1960.41 1543.82 1960.41 1547.44 1960.41 1551.03 1960.41 1554.59 1960.41 1558.14 1960.41 1561.61 1960.41 1564.98 1960.41 1565.54 1960.45 1566 1960.51 1566.36 1960.57 1566.73 1960.75 1567.07 1961.06 1567.38 1961.37 1567.68 1961.73 1567.88 1962.16 1567.97 1962.59 1568.07 1963.14 1568.11 1963.82 1568.11 1964.25 1568.11 1964.77 1568.11 1965.38 1568.11 1966 1568.11 1966.46 1568.11 1966.76 1568.11L1967.77 1568.11C1967.77 1569.77 1967.77 1571.56 1967.77 1573.49 1967.77 1575.43 1967.77 1577.22 1967.77 1578.88 1967.77 1579.12 1967.73 1579.3 1967.64 1579.43 1967.54 1579.55 1967.44 1579.66 1967.31 1579.75 1967.19 1579.84 1967.01 1579.89 1966.76 1579.89 1966.39 1579.89 1965.78 1579.89 1964.92 1579.89 1964.06 1579.89 1963.17 1579.89 1962.25 1579.89 1961.33 1579.89 1960.57 1579.89 1959.95 1579.89 1958.05 1579.89 1956.35 1579.61 1954.85 1579.06 1953.35 1578.51 1952.09 1577.68 1951.08 1576.58 1950.06 1575.47 1949.3 1574.06 1948.78 1572.34 1948.26 1570.63 1947.99 1568.63 1947.99 1566.36 1947.99 1563.54 1947.99 1560.63 1947.99 1557.62 1947.99 1554.62 1947.99 1551.58 1947.99 1548.52 1947.99 1545.45 1947.99 1542.38 1947.99 1539.32 1947.99 1536.25 1947.99 1533.23 1947.99 1530.25 1947.99 1527.28 1947.99 1524.44 1947.99 1521.74L1947.44 1521.74C1947.2 1521.74 1946.69 1521.74 1945.92 1521.74 1945.16 1521.74 1944.38 1521.74 1943.58 1521.74 1942.78 1521.74 1942.17 1521.74 1941.74 1521.74 1941.43 1521.74 1941.19 1521.65 1941 1521.47 1940.82 1521.28 1940.73 1521.04 1940.73 1520.73 1940.73 1519.08 1940.73 1517.43 1940.73 1515.81 1940.73 1514.18 1940.73 1512.54 1940.73 1510.89Z" fill="url(#fill4)" fill-rule="evenodd"/><text fill="#000000" fill-opacity="0" font-family="Arial,Arial_MSFontService,sans-serif" font-size="70.104" direction="ltr" writing-mode="lr-tb" x="1763.54" y="1572.23">Resolve</text><rect x="1613.5" y="1070.5" width="588" height="395" stroke="#1A1C1E" stroke-width="22.9167" stroke-linecap="butt" stroke-linejoin="round" stroke-miterlimit="10" stroke-opacity="1" fill="#1A1C1E" fill-opacity="1"/><g clip-path="url(#clip5)"><g clip-path="url(#clip6)" filter="url(#fx0)" transform="translate(1605 1249)"><g><g><rect x="24.4999" y="24.5001" width="557" height="105" stroke="#17B5F9" stroke-width="9" stroke-linecap="butt" stroke-linejoin="round" stroke-miterlimit="10" stroke-opacity="1" fill="#17B5F9" fill-opacity="1"/></g></g></g></g><rect x="1629.5" y="1273.5" width="557" height="105" stroke="#17B5F9" stroke-width="9.16667" stroke-linecap="butt" stroke-linejoin="round" stroke-miterlimit="10" stroke-opacity="1" fill="#17B5F9" fill-opacity="1"/><g clip-path="url(#clip7)"><g clip-path="url(#clip8)" filter="url(#fx1)" transform="translate(1598 1201)"><g><g><path d="M24.7016 73.2267C38.8309 66.1187 99.7909 51.7413 135.941 54.6014 172.091 57.4616 199.85 79.1695 241.601 90.3876 283.353 101.606 348.037 132.225 386.45 121.909 424.863 111.593 437.074 41.2004 472.08 28.4907 507.086 15.7809 572.552 36.7084 596.486 45.6507 596.882 61.8015 589.059 60.4607 589.455 76.6115 551.458 80.5902 578.748 76.5468 502.499 81.7919 425.105 83.2409 203.764 95.7514 123.944 99.0736 57.6588 103.135 57.7986 118.67 24.7259 136.5 23.9542 114.644 25.4733 95.0828 24.7016 73.2267Z" stroke="#7030A0" stroke-width="9" stroke-linecap="butt" stroke-linejoin="round" stroke-miterlimit="10" stroke-opacity="1" fill="#7030A0" fill-rule="evenodd" fill-opacity="1"/></g></g></g></g><path d="M1622.7 1274.23C1636.83 1267.12 1697.79 1252.74 1733.94 1255.6 1770.09 1258.46 1797.85 1280.17 1839.6 1291.39 1881.35 1302.61 1946.04 1333.23 1984.45 1322.91 2022.86 1312.59 2035.07 1242.2 2070.08 1229.49 2105.09 1216.78 2170.55 1237.71 2194.49 1246.65 2194.88 1262.8 2187.06 1261.46 2187.46 1277.61 2149.46 1281.59 2176.75 1277.55 2100.5 1282.79 2023.1 1284.24 1801.76 1296.75 1721.94 1300.07 1655.66 1304.14 1655.8 1319.67 1622.73 1337.5 1621.95 1315.64 1623.47 1296.08 1622.7 1274.23Z" stroke="#7030A0" stroke-width="9.16667" stroke-linecap="butt" stroke-linejoin="round" stroke-miterlimit="10" stroke-opacity="1" fill="#7030A0" fill-rule="evenodd" fill-opacity="1"/><g clip-path="url(#clip9)"><g clip-path="url(#clip10)" filter="url(#fx2)" transform="translate(1646 1095)"><g><g><path d="M24.5001 277.599C37.9376 259.055 73.081 290.329 113.524 248.147 153.966 205.965 211.448 23.4145 267.157 24.5053 322.867 25.5961 391.932 182.734 425.956 238.733 459.979 294.732 540.445 343.047 471.298 360.5L32.8986 359.409 24.5001 277.599Z" stroke="#FFC400" stroke-width="9" stroke-linecap="butt" stroke-linejoin="round" stroke-miterlimit="10" stroke-opacity="1" fill="#FFC400" fill-rule="evenodd" fill-opacity="1"/></g></g></g></g><path d="M1670.5 1372.6C1683.94 1354.06 1719.08 1385.33 1759.52 1343.15 1799.97 1300.96 1857.45 1118.41 1913.16 1119.51 1968.87 1120.6 2037.93 1277.73 2071.96 1333.73 2105.98 1389.73 2186.44 1438.05 2117.3 1455.5L1678.9 1454.41 1670.5 1372.6Z" stroke="#FFC400" stroke-width="9.16667" stroke-linecap="butt" stroke-linejoin="round" stroke-miterlimit="10" stroke-opacity="1" fill="#FFC400" fill-rule="evenodd" fill-opacity="1"/><g clip-path="url(#clip11)"><g clip-path="url(#clip12)" filter="url(#fx3)" transform="translate(1591 1286)"><g><g><path d="M24.5001 76.0702C38.6412 58.8321 90.7686 66.0956 112.81 76.0702 134.851 86.0448 199.586 130.531 249.603 142.799 299.62 155.068 376.152 168.691 412.911 149.681 449.671 130.67 437.262 43.3491 470.161 28.7349 503.061 14.1207 586.356 40.3083 610.309 61.995 610.706 101.163 611.103 140.332 611.5 179.5L27.9631 179.5 24.5001 76.0702Z" stroke="#BFBFBF" stroke-width="9" stroke-linecap="butt" stroke-linejoin="round" stroke-miterlimit="10" stroke-opacity="1" fill="#BFBFBF" fill-rule="evenodd" fill-opacity="1"/></g></g></g></g><path d="M1615.5 1362.07C1629.64 1344.83 1681.77 1352.1 1703.81 1362.07 1725.85 1372.04 1790.59 1416.53 1840.6 1428.8 1890.62 1441.07 1967.15 1454.69 2003.91 1435.68 2040.67 1416.67 2028.26 1329.35 2061.16 1314.73 2094.06 1300.12 2177.36 1326.31 2201.31 1347.99 2201.71 1387.16 2202.1 1426.33 2202.5 1465.5L1618.96 1465.5 1615.5 1362.07Z" stroke="#BFBFBF" stroke-width="9.16667" stroke-linecap="butt" stroke-linejoin="round" stroke-miterlimit="10" stroke-opacity="1" fill="#BFBFBF" fill-rule="evenodd" fill-opacity="1"/><rect x="1613" y="1070" width="588" height="395" stroke="#1A1C1E" stroke-width="45.8333" stroke-linecap="butt" stroke-linejoin="round" stroke-miterlimit="10" stroke-opacity="1" fill="none"/></g></g></svg>