<svg width="958" height="949" xmlns="http://www.w3.org/2000/svg" xmlns:xlink="http://www.w3.org/1999/xlink" xml:space="preserve" overflow="hidden"><defs><filter id="fx0" x="-10%" y="-10%" width="120%" height="120%" filterUnits="userSpaceOnUse" primitiveUnits="userSpaceOnUse"><feComponentTransfer color-interpolation-filters="sRGB"><feFuncR type="discrete" tableValues="0.000000 0.000000"/><feFuncG type="discrete" tableValues="0.000000 0.000000"/><feFuncB type="discrete" tableValues="0.000000 0.000000"/><feFuncA type="linear" slope="0.250980" intercept="0.000000"/></feComponentTransfer><feGaussianBlur stdDeviation="6.111111 6.111111"/></filter><filter id="fx1" x="-10%" y="-10%" width="120%" height="120%" filterUnits="userSpaceOnUse" primitiveUnits="userSpaceOnUse"><feComponentTransfer color-interpolation-filters="sRGB"><feFuncR type="discrete" tableValues="0.000000 0.000000"/><feFuncG type="discrete" tableValues="0.000000 0.000000"/><feFuncB type="discrete" tableValues="0.000000 0.000000"/><feFuncA type="linear" slope="0.250980" intercept="0.000000"/></feComponentTransfer><feGaussianBlur stdDeviation="6.111111 6.111111"/></filter><filter id="fx2" x="-10%" y="-10%" width="120%" height="120%" filterUnits="userSpaceOnUse" primitiveUnits="userSpaceOnUse"><feComponentTransfer color-interpolation-filters="sRGB"><feFuncR type="discrete" tableValues="0.000000 0.000000"/><feFuncG type="discrete" tableValues="0.000000 0.000000"/><feFuncB type="discrete" tableValues="0.000000 0.000000"/><feFuncA type="linear" slope="0.250980" intercept="0.000000"/></feComponentTransfer><feGaussianBlur stdDeviation="6.111111 6.111111"/></filter><filter id="fx3" x="-10%" y="-10%" width="120%" height="120%" filterUnits="userSpaceOnUse" primitiveUnits="userSpaceOnUse"><feComponentTransfer color-interpolation-filters="sRGB"><feFuncR type="discrete" tableValues="0.000000 0.000000"/><feFuncG type="discrete" tableValues="0.000000 0.000000"/><feFuncB type="discrete" tableValues="0.000000 0.000000"/><feFuncA type="linear" slope="0.250980" intercept="0.000000"/></feComponentTransfer><feGaussianBlur stdDeviation="6.111111 6.111111"/></filter><linearGradient x1="6441" y1="1085" x2="5524" y2="168" gradientUnits="userSpaceOnUse" spreadMethod="reflect" id="fill4"><stop offset="0" stop-color="#FFFFFF" stop-opacity="1"/><stop offset="0.0344828" stop-color="#FEFEFE" stop-opacity="1"/><stop offset="0.0689655" stop-color="#FEFEFE" stop-opacity="1"/><stop offset="0.103448" stop-color="#FEFEFE" stop-opacity="1"/><stop offset="0.137931" stop-color="#FEFEFE" stop-opacity="1"/><stop offset="0.172414" stop-color="#FEFEFD" stop-opacity="1"/><stop offset="0.206897" stop-color="#FEFEFD" stop-opacity="1"/><stop offset="0.241379" stop-color="#FDFDFC" stop-opacity="1"/><stop offset="0.275862" stop-color="#FDFDFC" stop-opacity="1"/><stop offset="0.310345" stop-color="#FDFCFB" stop-opacity="1"/><stop offset="0.344828" stop-color="#FCFCFA" stop-opacity="1"/><stop offset="0.37931" stop-color="#FCFBFA" stop-opacity="1"/><stop offset="0.413793" stop-color="#FBFBF9" stop-opacity="1"/><stop offset="0.448276" stop-color="#FBFAF8" stop-opacity="1"/><stop offset="0.482759" stop-color="#FAFAF7" stop-opacity="1"/><stop offset="0.517241" stop-color="#FAF9F6" stop-opacity="1"/><stop offset="0.551724" stop-color="#F9F8F5" stop-opacity="1"/><stop offset="0.586207" stop-color="#F8F8F3" stop-opacity="1"/><stop offset="0.62069" stop-color="#F8F7F2" stop-opacity="1"/><stop offset="0.655172" stop-color="#F7F6F1" stop-opacity="1"/><stop offset="0.689655" stop-color="#F6F5F0" stop-opacity="1"/><stop offset="0.724138" stop-color="#F5F4EE" stop-opacity="1"/><stop offset="0.758621" stop-color="#F4F3ED" stop-opacity="1"/><stop offset="0.793103" stop-color="#F3F2EB" stop-opacity="1"/><stop offset="0.827586" stop-color="#F3F1E9" stop-opacity="1"/><stop offset="0.862069" stop-color="#F2F0E8" stop-opacity="1"/><stop offset="0.896552" stop-color="#F1EFE6" stop-opacity="1"/><stop offset="0.931035" stop-color="#F0EEE4" stop-opacity="1"/><stop offset="0.965517" stop-color="#EFEDE2" stop-opacity="1"/><stop offset="1" stop-color="#EEECE1" stop-opacity="1"/></linearGradient><clipPath id="clip5"><rect x="1.66699" y="1.66663" width="970.667" height="921.667"/></clipPath><clipPath id="clip6"><rect x="1.66699" y="1.6665" width="970.667" height="815.667"/></clipPath><clipPath id="clip7"><rect x="1.6665" y="1.66675" width="905.667" height="380.667"/></clipPath><clipPath id="clip8"><rect x="1.66699" y="1.66675" width="747.666" height="290.667"/></clipPath></defs><g transform="translate(-5504 -155)"><g><path d="M5524 626.5C5524 373.277 5729.28 168 5982.5 168 6235.72 168 6441 373.277 6441 626.5 6441 879.722 6235.72 1085 5982.5 1085 5729.28 1085 5524 879.722 5524 626.5Z" fill="url(#fill4)" fill-rule="evenodd"/><g clip-path="url(#clip5)" filter="url(#fx0)" transform="translate(5507 199)"><g><g><path d="M684.86 20C673.364 27.8282 661.735 35.5727 650.638 43.9033 535.945 129.679 446.196 238.06 324.667 316.803 234.696 375.076 130.61 415.012 20 433.432L20.2663 472.489C37.355 580.954 89.5531 685.526 178.414 769 201.894 791.061 227.195 810.192 253.471 827.523 427.82 924.225 651.748 898.982 799.732 751.124 978.741 572.289 978.741 282.267 799.732 103.431 765.11 68.8532 726.184 41.2241 684.86 20Z" fill="#68349A" fill-rule="evenodd" fill-opacity="1"/></g></g></g><path d="M6191.86 219C6180.36 226.828 6168.73 234.573 6157.64 242.903 6042.94 328.679 5953.2 437.06 5831.67 515.803 5741.7 574.076 5637.61 614.012 5527 632.432L5527.27 671.489C5544.35 779.954 5596.55 884.526 5685.41 968 5708.89 990.061 5734.19 1009.19 5760.47 1026.52 5934.82 1123.22 6158.75 1097.98 6306.73 950.124 6485.74 771.289 6485.74 481.267 6306.73 302.431 6272.11 267.853 6233.18 240.224 6191.86 219Z" fill="#68349A" fill-rule="evenodd" fill-opacity="1"/><g clip-path="url(#clip6)" filter="url(#fx1)" transform="translate(5507 305)"><g><g><path d="M820.293 19.9998C760.224 40.1019 703.259 63.8253 650.865 91.5395 536.138 152.215 446.166 229.002 324.563 284.689 234.636 325.891 130.557 354.049 20 367.13 37.1691 475.326 89.475 579.716 178.204 663.007 201.806 685.141 227.227 704.282 253.624 721.687 428.021 818.169 651.929 792.894 799.93 645.122 971.798 473.552 978.276 199.847 820.293 19.9998Z" fill="#EEC643" fill-rule="evenodd" fill-opacity="1"/></g></g></g><path d="M6327.29 325C6267.22 345.102 6210.26 368.825 6157.86 396.539 6043.14 457.215 5953.17 534.002 5831.56 589.689 5741.64 630.891 5637.56 659.049 5527 672.13 5544.17 780.326 5596.48 884.716 5685.2 968.007 5708.81 990.141 5734.23 1009.28 5760.62 1026.69 5935.02 1123.17 6158.93 1097.89 6306.93 950.122 6478.8 778.552 6485.28 504.847 6327.29 325Z" fill="#EEC643" fill-rule="evenodd" fill-opacity="1"/><g clip-path="url(#clip7)" filter="url(#fx2)" transform="translate(5533 741)"><g><g><path d="M889 20.0001C765.771 45.4195 645.921 59.0084 516.738 64.5396 370.336 70.8219 196.656 67.5271 20 42.0564 42.1675 103.207 77.4103 160.737 126.452 209.767 305.523 388.744 595.753 388.744 774.823 209.767 829.739 154.865 867.758 89.4127 889 20.0001Z" fill="#6AB3F2" fill-rule="evenodd" fill-opacity="1"/></g></g></g><path d="M6422 761C6298.77 786.419 6178.92 800.008 6049.74 805.54 5903.34 811.822 5729.66 808.527 5553 783.056 5575.17 844.206 5610.41 901.737 5659.45 950.767 5838.52 1129.74 6128.75 1129.74 6307.82 950.767 6362.74 895.865 6400.76 830.413 6422 761Z" fill="#6AB3F2" fill-rule="evenodd" fill-opacity="1"/><g clip-path="url(#clip8)" filter="url(#fx3)" transform="translate(5571 830)"><g><g><path d="M20 20.0001C44.9837 62.371 76.1887 102.481 114.537 138.421 135.11 157.712 157.098 174.615 179.843 190.279 353.38 292.871 579.748 271.661 731 126.142 682.514 111.867 634.291 97.4147 581.032 84.567 423.657 46.6051 226.717 24.8259 20 20.0001Z" fill="#BFBFBF" fill-rule="evenodd" fill-opacity="1"/></g></g></g><path d="M5591 850C5615.98 892.371 5647.19 932.481 5685.54 968.421 5706.11 987.712 5728.1 1004.61 5750.84 1020.28 5924.38 1122.87 6150.75 1101.66 6302 956.142 6253.51 941.867 6205.29 927.415 6152.03 914.567 5994.66 876.605 5797.72 854.826 5591 850Z" fill="#BFBFBF" fill-rule="evenodd" fill-opacity="1"/><path d="M5525.5 627C5525.5 373.777 5730.78 168.5 5984 168.5 6237.22 168.5 6442.5 373.777 6442.5 627 6442.5 880.223 6237.22 1085.5 5984 1085.5 5730.78 1085.5 5525.5 880.223 5525.5 627Z" stroke="#EEECE1" stroke-width="22.9167" stroke-linecap="butt" stroke-linejoin="miter" stroke-miterlimit="4" stroke-opacity="1" fill="none" fill-rule="evenodd"/></g></g></svg>