<svg width="1521" height="472" xmlns="http://www.w3.org/2000/svg" xmlns:xlink="http://www.w3.org/1999/xlink" xml:space="preserve" overflow="hidden"><defs><filter id="fx0" x="-10%" y="-10%" width="120%" height="120%" filterUnits="userSpaceOnUse" primitiveUnits="userSpaceOnUse"><feComponentTransfer color-interpolation-filters="sRGB"><feFuncR type="discrete" tableValues="0.000000 0.000000"/><feFuncG type="discrete" tableValues="0.000000 0.000000"/><feFuncB type="discrete" tableValues="0.000000 0.000000"/><feFuncA type="linear" slope="0.400000" intercept="0.000000"/></feComponentTransfer><feGaussianBlur stdDeviation="6.111111 6.111111"/></filter><filter id="fx1" x="-10%" y="-10%" width="120%" height="120%" filterUnits="userSpaceOnUse" primitiveUnits="userSpaceOnUse"><feComponentTransfer color-interpolation-filters="sRGB"><feFuncR type="discrete" tableValues="0.000000 0.000000"/><feFuncG type="discrete" tableValues="0.000000 0.000000"/><feFuncB type="discrete" tableValues="0.000000 0.000000"/><feFuncA type="linear" slope="0.400000" intercept="0.000000"/></feComponentTransfer><feGaussianBlur stdDeviation="6.111111 6.111111"/></filter><filter id="fx2" x="-10%" y="-10%" width="120%" height="120%" filterUnits="userSpaceOnUse" primitiveUnits="userSpaceOnUse"><feComponentTransfer color-interpolation-filters="sRGB"><feFuncR type="discrete" tableValues="0.000000 0.000000"/><feFuncG type="discrete" tableValues="0.000000 0.000000"/><feFuncB type="discrete" tableValues="0.000000 0.000000"/><feFuncA type="linear" slope="0.400000" intercept="0.000000"/></feComponentTransfer><feGaussianBlur stdDeviation="6.111111 6.111111"/></filter><filter id="fx3" x="-10%" y="-10%" width="120%" height="120%" filterUnits="userSpaceOnUse" primitiveUnits="userSpaceOnUse"><feComponentTransfer color-interpolation-filters="sRGB"><feFuncR type="discrete" tableValues="0.000000 0.000000"/><feFuncG type="discrete" tableValues="0.000000 0.000000"/><feFuncB type="discrete" tableValues="0.000000 0.000000"/><feFuncA type="linear" slope="0.400000" intercept="0.000000"/></feComponentTransfer><feGaussianBlur stdDeviation="6.111111 6.111111"/></filter><linearGradient x1="1321.32" y1="1674.09" x2="1079.93" y2="1065.9" gradientUnits="userSpaceOnUse" spreadMethod="reflect" id="fill4"><stop offset="0" stop-color="#023B53" stop-opacity="1"/><stop offset="0.1" stop-color="#023B53" stop-opacity="1"/><stop offset="0.4" stop-color="#034E6E" stop-opacity="1"/><stop offset="0.9" stop-color="#6EA1B6" stop-opacity="1"/><stop offset="1" stop-color="#6EA1B6" stop-opacity="1"/></linearGradient><clipPath id="clip5"><path d="M182.5 1304.5 182.5 1409.5 739.5 1409.5 739.5 1304.5ZM142 1077 1663 1077 1663 1549 142 1549Z" fill-rule="evenodd" clip-rule="evenodd"/></clipPath><clipPath id="clip6"><rect x="1.6667" y="1.66675" width="602.666" height="150.667"/></clipPath><clipPath id="clip7"><path d="M653.921 1256.55C642.487 1256.24 631.832 1257.31 623.08 1260.49 605.577 1266.85 593.773 1287.62 581.543 1308.1L576.331 1316.5 572.924 1316.64C523.602 1318.78 464.073 1321.77 409.392 1324.53L401.114 1324.95 392.601 1322.39C350.85 1311.17 323.091 1289.46 286.941 1286.6 250.791 1283.74 189.831 1298.12 175.702 1305.23 176.473 1327.08 174.954 1346.64 175.726 1368.5 208.799 1350.67 208.659 1335.13 274.944 1331.07 294.899 1330.24 323.699 1328.84 356.884 1327.18L401.114 1324.95 409.237 1327.39C450.113 1340.62 503.839 1362.94 537.45 1353.91 551.855 1350.04 562.575 1337.72 572.195 1323.17L576.331 1316.5 618.287 1314.81C631.902 1314.33 643.825 1313.97 653.499 1313.79 729.748 1308.55 702.459 1312.59 740.456 1308.61 740.059 1292.46 747.882 1293.8 747.486 1277.65 729.536 1270.94 688.224 1257.5 653.921 1256.55ZM142 1077 1663 1077 1663 1549 142 1549Z" fill-rule="evenodd" clip-rule="evenodd"/></clipPath><clipPath id="clip8"><rect x="1.66029" y="-2.55249" width="617.71" height="162.93"/></clipPath><clipPath id="clip9"><path d="M466.157 1149.51C410.448 1148.41 352.966 1331.5 312.523 1373.81 272.081 1416.12 236.937 1384.75 223.5 1403.35L231.898 1485.41 670.297 1486.5C739.445 1468.99 658.979 1420.54 624.955 1364.37 590.932 1308.2 521.867 1150.6 466.157 1149.51ZM142 1077 1663 1077 1663 1549 142 1549Z" fill-rule="evenodd" clip-rule="evenodd"/></clipPath><clipPath id="clip10"><rect x="1.57761" y="1.61292" width="539.756" height="382.721"/></clipPath><clipPath id="clip11"><path d="M646.57 1341.72C633.761 1340.98 622.386 1342.08 614.161 1345.74 581.262 1360.35 593.671 1447.67 556.912 1466.68 520.152 1485.69 443.62 1472.07 393.603 1459.8 343.586 1447.53 278.851 1403.04 256.81 1393.07 234.768 1383.1 182.641 1375.83 168.5 1393.07L171.963 1496.5 755.5 1496.5C755.103 1457.33 754.706 1418.16 754.31 1379 736.345 1362.73 685 1343.93 646.57 1341.72ZM142 1077 1663 1077 1663 1549 142 1549Z" fill-rule="evenodd" clip-rule="evenodd"/></clipPath><clipPath id="clip12"><rect x="1.63257" y="-4.21228" width="632.726" height="206.545"/></clipPath></defs><g transform="translate(-142 -1077)"><g><path d="M1248.71 1347.9C1242.07 1347.9 1236.4 1349.21 1231.72 1351.85 1227.03 1354.49 1223.41 1358.3 1220.88 1363.28 1218.34 1368.26 1217.07 1374.27 1217.07 1381.3L1217.07 1407.08C1217.07 1412.55 1217.85 1417.39 1219.41 1421.58 1220.97 1425.78 1223.12 1429.45 1225.86 1432.57 1228.4 1435.11 1231.57 1437.06 1235.38 1438.43 1239.19 1439.8 1243.44 1440.48 1248.12 1440.48 1254.77 1440.48 1260.48 1439.16 1265.27 1436.53 1270.05 1433.89 1273.66 1430.03 1276.11 1424.95 1278.55 1419.88 1279.77 1413.92 1279.77 1407.08L1279.77 1381.3C1279.77 1375.24 1279.08 1370.11 1277.72 1365.91 1276.35 1361.72 1274.3 1358.25 1271.56 1355.51 1269.03 1352.78 1265.85 1350.83 1262.04 1349.65 1258.23 1348.48 1253.79 1347.9 1248.71 1347.9ZM1593.33 1345.26C1583.56 1345.26 1576.28 1347.65 1571.5 1352.44 1566.71 1357.22 1564.32 1364.99 1564.32 1375.73L1564.32 1379.83 1620.87 1379.83C1620.87 1379.05 1620.87 1378.37 1620.87 1377.78 1620.87 1377.2 1620.87 1376.51 1620.87 1375.73 1620.87 1370.07 1620.28 1365.23 1619.11 1361.23 1617.94 1357.22 1616.08 1354.05 1613.54 1351.7 1611.39 1349.36 1608.66 1347.7 1605.34 1346.72 1602.02 1345.75 1598.01 1345.26 1593.33 1345.26ZM984.889 1345.26C975.122 1345.26 967.846 1347.65 963.061 1352.44 958.275 1357.22 955.882 1364.99 955.882 1375.73L955.882 1379.83 1012.43 1379.83C1012.43 1379.05 1012.43 1378.37 1012.43 1377.78 1012.43 1377.2 1012.43 1376.51 1012.43 1375.73 1012.43 1370.07 1011.85 1365.23 1010.67 1361.23 1009.5 1357.22 1007.65 1354.05 1005.11 1351.7 1002.96 1349.36 1000.22 1347.7 996.902 1346.72 993.581 1345.75 989.577 1345.26 984.889 1345.26ZM1377.05 1315.37C1383.69 1315.37 1390.18 1315.37 1396.53 1315.37 1402.88 1315.37 1409.28 1315.37 1415.72 1315.37 1416.7 1315.37 1417.43 1315.57 1417.92 1315.96 1418.41 1316.35 1418.9 1316.84 1419.39 1317.42 1419.88 1318.01 1420.22 1318.79 1420.41 1319.77 1423.73 1331.88 1427.1 1344.14 1430.52 1356.54 1433.94 1368.94 1437.36 1382.27 1440.78 1396.53 1444.19 1410.79 1447.66 1426.81 1451.18 1444.59L1456.74 1444.59C1458.89 1434.04 1461.04 1424.03 1463.19 1414.55 1465.34 1405.08 1467.49 1396 1469.64 1387.3 1471.79 1378.61 1473.89 1370.26 1475.94 1362.25 1477.99 1354.24 1480.04 1346.33 1482.09 1338.52 1484.14 1330.71 1486.14 1322.99 1488.1 1315.37 1494.15 1315.37 1500.26 1315.37 1506.41 1315.37 1512.56 1315.37 1518.76 1315.37 1525.01 1315.37 1525.99 1315.37 1526.77 1315.62 1527.36 1316.1 1527.94 1316.59 1528.38 1317.23 1528.68 1318.01 1528.97 1318.79 1528.92 1319.67 1528.53 1320.65 1524.62 1333.34 1520.72 1346.04 1516.81 1358.74 1512.9 1371.43 1509.05 1384.13 1505.24 1396.83 1501.43 1409.52 1497.62 1422.22 1493.81 1434.92 1490 1447.61 1486.04 1460.31 1481.94 1473.01 1473.35 1473.01 1464.8 1473.01 1456.31 1473.01 1447.81 1473.01 1439.95 1473.01 1432.72 1473.01 1430.77 1473.01 1429.11 1472.71 1427.74 1472.13 1426.37 1471.54 1425.25 1470.47 1424.37 1468.9 1423.49 1467.34 1422.46 1464.9 1421.29 1461.58 1418.75 1452.79 1416.07 1443.76 1413.23 1434.48 1410.4 1425.2 1407.52 1415.68 1404.59 1405.91 1401.66 1396.14 1398.68 1386.28 1395.65 1376.32 1392.63 1366.35 1389.55 1356.25 1386.42 1345.99 1383.3 1335.74 1380.17 1325.53 1377.05 1315.37ZM1593.33 1311.86C1606.61 1311.86 1618.18 1314.59 1628.05 1320.06 1637.91 1325.53 1645.58 1333.15 1651.05 1342.91 1656.52 1352.68 1659.25 1364.11 1659.25 1377.2L1659.25 1401.51C1659.25 1402.1 1659.15 1402.64 1658.96 1403.13 1658.76 1403.61 1658.42 1403.96 1657.93 1404.15 1657.44 1404.35 1656.91 1404.44 1656.32 1404.44L1588.93 1404.44C1585.61 1404.44 1582.24 1404.44 1578.82 1404.44 1575.4 1404.44 1572.04 1404.44 1568.71 1404.44L1564.32 1404.44 1564.32 1411.48C1564.32 1414.6 1564.61 1417.53 1565.2 1420.27 1565.78 1423 1566.57 1425.44 1567.54 1427.59 1568.52 1429.74 1569.89 1431.6 1571.64 1433.16 1574.77 1436.28 1578.92 1438.53 1584.1 1439.9 1589.27 1441.26 1595.28 1441.95 1602.12 1441.95 1609.15 1441.95 1615.35 1441.56 1620.72 1440.78 1626.09 1439.99 1631.22 1439.02 1636.1 1437.85 1640.99 1436.67 1645.58 1435.21 1649.88 1433.45L1655.44 1433.45C1655.44 1438.53 1655.44 1443.56 1655.44 1448.54 1655.44 1453.52 1655.44 1458.55 1655.44 1463.63 1655.44 1464.02 1655.34 1464.41 1655.15 1464.8 1654.95 1465.19 1654.66 1465.58 1654.27 1465.97 1652.71 1467.73 1649.19 1469.39 1643.72 1470.96 1638.25 1472.52 1631.81 1473.84 1624.38 1474.91 1616.96 1475.99 1609.44 1476.52 1601.82 1476.52 1588.93 1476.52 1577.6 1475.01 1567.84 1471.98 1558.07 1468.95 1550.06 1464.61 1543.81 1458.94 1537.56 1453.28 1532.82 1446.39 1529.6 1438.29 1526.38 1430.18 1524.76 1421.05 1524.76 1410.89L1524.76 1377.49C1524.76 1367.53 1526.38 1358.54 1529.6 1350.53 1532.82 1342.52 1537.46 1335.64 1543.52 1329.88 1549.57 1324.11 1556.8 1319.67 1565.2 1316.54 1573.6 1313.42 1582.97 1311.86 1593.33 1311.86ZM1248.42 1311.86C1258.97 1311.86 1268.59 1313.52 1277.28 1316.84 1285.97 1320.16 1293.44 1324.8 1299.69 1330.75 1305.94 1336.71 1310.78 1343.79 1314.2 1352 1317.61 1360.2 1319.32 1369.28 1319.32 1379.25L1319.32 1408.84C1319.32 1422.12 1316.34 1433.84 1310.39 1444 1304.43 1454.16 1296.13 1462.12 1285.48 1467.88 1274.84 1473.64 1262.48 1476.52 1248.42 1476.52 1237.87 1476.52 1228.25 1474.86 1219.56 1471.54 1210.86 1468.22 1203.39 1463.58 1197.14 1457.62 1190.89 1451.67 1186.06 1444.59 1182.64 1436.38L1182.26 1435.32 1181.57 1438.58C1180.23 1443.17 1178.22 1447.42 1175.53 1451.32 1170.16 1459.14 1162.3 1465.19 1151.94 1469.49 1141.59 1473.79 1128.89 1475.94 1113.85 1475.94 1106.82 1475.94 1100.28 1475.69 1094.22 1475.2 1088.17 1474.72 1082.55 1474.03 1077.37 1473.15 1072.2 1472.27 1067.56 1471.25 1063.46 1470.08 1059.35 1468.9 1055.84 1467.63 1052.91 1466.27 1051.74 1465.88 1051 1465.39 1050.71 1464.8 1050.42 1464.22 1050.27 1463.14 1050.27 1461.58 1050.27 1457.09 1050.27 1451.71 1050.27 1445.46 1050.27 1439.21 1050.27 1433.16 1050.27 1427.3L1055.55 1427.3C1060.23 1429.25 1064.78 1430.86 1069.17 1432.13 1073.57 1433.4 1078.06 1434.43 1082.65 1435.21 1087.24 1435.99 1092.12 1436.58 1097.3 1436.97 1102.47 1437.36 1108.09 1437.55 1114.15 1437.55 1125.87 1437.55 1133.87 1436.23 1138.17 1433.6 1142.47 1430.96 1144.62 1427.88 1144.62 1424.37 1144.62 1422.22 1144.08 1420.27 1143.01 1418.51 1141.93 1416.75 1140.08 1415.24 1137.44 1413.97 1134.8 1412.7 1131.04 1411.67 1126.16 1410.89L1095.98 1406.5C1086.6 1404.93 1078.79 1402.25 1072.54 1398.44 1066.29 1394.63 1061.65 1389.79 1058.62 1383.93 1055.59 1378.07 1054.08 1371.53 1054.08 1364.3 1054.08 1356.1 1055.69 1348.82 1058.92 1342.47 1062.14 1336.13 1066.88 1330.71 1073.13 1326.21 1079.38 1321.72 1087.09 1318.3 1096.27 1315.96 1105.45 1313.61 1115.9 1312.44 1127.62 1312.44 1133.87 1312.44 1139.64 1312.69 1144.91 1313.17 1150.18 1313.66 1154.97 1314.3 1159.27 1315.08 1163.57 1315.86 1167.37 1316.74 1170.69 1317.72 1172.06 1318.11 1173.09 1318.55 1173.77 1319.03 1174.45 1319.52 1174.85 1320.16 1174.94 1320.94 1175.04 1321.72 1175.09 1322.89 1175.09 1324.46 1175.09 1328.56 1175.09 1333.68 1175.09 1339.84 1175.09 1345.99 1175.09 1351.7 1175.09 1356.98L1169.82 1356.98C1164.54 1355.61 1159.46 1354.44 1154.58 1353.46 1149.7 1352.49 1144.72 1351.8 1139.64 1351.41 1134.56 1351.02 1129.19 1350.83 1123.52 1350.83 1115.71 1350.83 1109.6 1351.36 1105.21 1352.44 1100.81 1353.51 1097.74 1354.93 1095.98 1356.69 1094.22 1358.44 1093.34 1360.49 1093.34 1362.84 1093.34 1364.99 1093.88 1366.89 1094.95 1368.55 1096.03 1370.21 1097.84 1371.53 1100.37 1372.51 1102.91 1373.48 1106.43 1374.36 1110.92 1375.14L1138.46 1379.25C1148.04 1380.42 1156.14 1382.91 1162.78 1386.72 1167.76 1389.57 1171.89 1393.09 1175.17 1397.27L1177.51 1400.7 1177.51 1379.54C1177.51 1366.26 1180.49 1354.54 1186.45 1344.38 1192.41 1334.22 1200.76 1326.26 1211.5 1320.5 1222.24 1314.74 1234.55 1311.86 1248.42 1311.86ZM821.058 1303.65 821.058 1316.98C821.058 1323.33 821.058 1329.44 821.058 1335.3 821.058 1341.35 821.058 1347.35 821.058 1353.28L821.058 1367.53 831.167 1367.53C836.929 1367.53 842.643 1367.53 848.307 1367.53 853.777 1367.53 858.269 1366.74 861.785 1365.18 865.301 1363.62 867.889 1361.13 869.55 1357.71 871.21 1354.29 872.04 1350.14 872.04 1345.26L872.04 1326.21C872.04 1322.5 871.601 1319.28 870.722 1316.54 869.843 1313.81 868.427 1311.47 866.473 1309.51 864.715 1307.75 862.323 1306.34 859.295 1305.26 856.267 1304.19 852.605 1303.65 848.307 1303.65 839.517 1303.65 830.679 1303.65 821.791 1303.65ZM765.974 1267.91C779.452 1267.91 792.93 1267.91 806.408 1267.91 819.886 1267.91 833.364 1267.91 846.842 1267.91 858.758 1267.91 868.915 1269.27 877.314 1272.01 885.714 1274.74 892.55 1278.8 897.824 1284.17 903.098 1289.54 906.956 1295.94 909.398 1303.36 911.839 1310.78 913.06 1319.08 913.06 1328.26L913.06 1344.67C913.06 1353.66 911.693 1361.72 908.958 1368.84 906.224 1375.97 902.268 1382.03 897.092 1387.01 893.21 1390.75 888.696 1393.8 883.55 1396.16L883.118 1396.33 884.273 1398.39C885.396 1400.4 886.495 1402.37 887.569 1404.3 891.867 1412.01 896.457 1420.46 901.34 1429.64 903.098 1432.57 904.71 1434.57 906.175 1435.65 907.64 1436.72 909.447 1437.26 911.595 1437.26 912.572 1437.26 913.304 1437.26 913.793 1437.26 914.281 1437.26 914.916 1437.26 915.697 1437.26L920.816 1437.26 919.046 1432.01C917.234 1425.55 916.327 1418.51 916.327 1410.89L916.327 1377.49C916.327 1367.53 917.939 1358.54 921.162 1350.53 924.385 1342.52 929.024 1335.64 935.079 1329.88 941.134 1324.11 948.362 1319.67 956.761 1316.54 965.16 1313.42 974.536 1311.86 984.889 1311.86 998.172 1311.86 1009.75 1314.59 1019.61 1320.06 1029.47 1325.53 1037.14 1333.15 1042.61 1342.91 1048.08 1352.68 1050.81 1364.11 1050.81 1377.2L1050.81 1401.51C1050.81 1402.1 1050.72 1402.64 1050.52 1403.13 1050.33 1403.61 1049.98 1403.96 1049.5 1404.15 1049.01 1404.35 1048.47 1404.44 1047.88 1404.44L980.494 1404.44C977.173 1404.44 973.804 1404.44 970.386 1404.44 966.967 1404.44 963.598 1404.44 960.277 1404.44L955.882 1404.44 955.882 1411.48C955.882 1414.6 956.175 1417.53 956.761 1420.27 957.347 1423 958.128 1425.44 959.105 1427.59 960.082 1429.74 961.449 1431.6 963.207 1433.16 966.332 1436.28 970.483 1438.53 975.66 1439.9 980.836 1441.26 986.842 1441.95 993.679 1441.95 1000.71 1441.95 1006.91 1441.56 1012.28 1440.78 1017.66 1439.99 1022.78 1439.02 1027.67 1437.85 1032.55 1436.67 1037.14 1435.21 1041.44 1433.45L1047.01 1433.45C1047.01 1438.53 1047.01 1443.56 1047.01 1448.54 1047.01 1453.52 1047.01 1458.55 1047.01 1463.63 1047.01 1464.02 1046.91 1464.41 1046.71 1464.8 1046.52 1465.19 1046.22 1465.58 1045.83 1465.97 1044.27 1467.73 1040.75 1469.39 1035.29 1470.96 1029.82 1472.52 1023.37 1473.84 1015.95 1474.91 1008.52 1475.99 1001 1476.52 993.386 1476.52 980.494 1476.52 969.165 1475.01 959.398 1471.98 949.631 1468.95 941.623 1464.61 935.372 1458.94 930.684 1454.69 926.848 1449.76 923.863 1444.14L921.264 1438.51 921.264 1445.72C921.264 1448.43 921.264 1451.03 921.264 1453.52 921.264 1458.5 921.264 1463.92 921.264 1469.78 921.264 1470.76 920.971 1471.54 920.385 1472.13 919.799 1472.71 919.018 1473.01 918.041 1473.01 916.674 1473.01 914.867 1473.01 912.621 1473.01 910.375 1473.01 908.275 1473.01 906.321 1473.01 899.68 1473.01 894.113 1472.47 889.62 1471.39 885.128 1470.32 881.27 1468.37 878.047 1465.53 874.824 1462.7 871.845 1458.75 869.11 1453.67 864.032 1443.71 859.002 1433.79 854.021 1423.93L842.835 1402.1 835.269 1402.1 821.058 1402.1 821.058 1406.35C821.058 1418.36 821.058 1431.01 821.058 1444.29 821.058 1449.57 821.058 1454.64 821.058 1459.53 821.058 1464.41 821.058 1468.9 821.058 1473.01 814.612 1473.01 808.411 1473.01 802.453 1473.01 796.495 1473.01 790.196 1473.01 783.554 1473.01 782.578 1473.01 781.796 1472.71 781.21 1472.13 780.624 1471.54 780.331 1470.76 780.331 1469.78 780.331 1453.96 780.331 1438.68 780.331 1423.93 780.331 1409.18 780.331 1394.48 780.331 1379.83 780.331 1365.18 780.331 1350.39 780.331 1335.44 780.331 1327.97 780.331 1320.44 780.331 1312.85L780.331 1303.65 769.197 1303.65C768.221 1303.65 767.439 1303.36 766.853 1302.77 766.267 1302.19 765.974 1301.41 765.974 1300.43 765.974 1294.76 765.974 1289.34 765.974 1284.17 765.974 1278.99 765.974 1273.57 765.974 1267.91ZM1303.55 1253.26C1304.91 1253.26 1307.6 1253.26 1311.6 1253.26 1315.61 1253.26 1320.15 1253.26 1325.23 1253.26 1330.31 1253.26 1335.43 1253.26 1340.61 1253.26 1345.79 1253.26 1350.38 1253.26 1354.38 1253.26 1358.39 1253.26 1361.27 1253.26 1363.02 1253.26 1363.81 1253.26 1364.39 1253.4 1364.78 1253.7 1365.17 1253.99 1365.51 1254.33 1365.81 1254.72 1366.1 1255.11 1366.25 1255.7 1366.25 1256.48 1366.25 1267.22 1366.25 1278.26 1366.25 1289.59 1366.25 1300.92 1366.25 1312.3 1366.25 1323.72 1366.25 1335.15 1366.25 1346.63 1366.25 1358.15 1366.25 1369.67 1366.25 1381.1 1366.25 1392.43 1366.25 1403.76 1366.25 1414.8 1366.25 1425.54 1366.25 1427.3 1366.34 1428.76 1366.54 1429.94 1366.74 1431.11 1367.32 1432.18 1368.3 1433.16 1369.28 1434.13 1370.45 1434.77 1371.81 1435.06 1373.18 1435.36 1374.94 1435.5 1377.09 1435.5 1378.46 1435.5 1380.12 1435.5 1382.07 1435.5 1384.02 1435.5 1385.49 1435.5 1386.46 1435.5L1389.69 1435.5C1389.69 1440.78 1389.69 1446.49 1389.69 1452.64 1389.69 1458.8 1389.69 1464.51 1389.69 1469.78 1389.69 1470.56 1389.54 1471.15 1389.25 1471.54 1388.95 1471.93 1388.61 1472.27 1388.22 1472.57 1387.83 1472.86 1387.25 1473.01 1386.46 1473.01 1385.29 1473.01 1383.34 1473.01 1380.6 1473.01 1377.87 1473.01 1375.04 1473.01 1372.11 1473.01 1369.18 1473.01 1366.74 1473.01 1364.78 1473.01 1358.73 1473.01 1353.31 1472.13 1348.52 1470.37 1343.74 1468.61 1339.73 1465.97 1336.51 1462.46 1333.28 1458.94 1330.84 1454.45 1329.18 1448.98 1327.52 1443.51 1326.69 1437.16 1326.69 1429.94 1326.69 1420.95 1326.69 1411.67 1326.69 1402.1 1326.69 1392.53 1326.69 1382.86 1326.69 1373.09 1326.69 1363.33 1326.69 1353.56 1326.69 1343.79 1326.69 1334.03 1326.69 1324.41 1326.69 1314.93 1326.69 1305.46 1326.69 1296.42 1326.69 1287.83L1324.93 1287.83C1324.15 1287.83 1322.54 1287.83 1320.1 1287.83 1317.66 1287.83 1315.17 1287.83 1312.63 1287.83 1310.09 1287.83 1308.14 1287.83 1306.77 1287.83 1305.79 1287.83 1305.01 1287.54 1304.42 1286.95 1303.84 1286.37 1303.55 1285.58 1303.55 1284.61 1303.55 1279.33 1303.55 1274.11 1303.55 1268.93 1303.55 1263.76 1303.55 1258.53 1303.55 1253.26Z" fill="url(#fill4)" fill-rule="evenodd"/><text fill="#000000" fill-opacity="0" font-family="Arial,Arial_MSFontService,sans-serif" font-size="223.266" direction="ltr" writing-mode="lr-tb" x="765.974" y="1448.61">Resolve</text><rect x="166.5" y="1101.5" width="588" height="395" stroke="#FFFFFF" stroke-width="22.9167" stroke-linecap="butt" stroke-linejoin="round" stroke-miterlimit="10" stroke-opacity="1" fill="#FFFFFF" fill-opacity="1"/><g clip-path="url(#clip5)"><g clip-path="url(#clip6)" filter="url(#fx0)" transform="translate(158 1280)"><g><g><rect x="24.5" y="24.5" width="557" height="105" stroke="#17B5F9" stroke-width="9" stroke-linecap="butt" stroke-linejoin="round" stroke-miterlimit="10" stroke-opacity="1" fill="#17B5F9" fill-opacity="1"/></g></g></g></g><rect x="182.5" y="1304.5" width="557" height="105" stroke="#17B5F9" stroke-width="9.16667" stroke-linecap="butt" stroke-linejoin="round" stroke-miterlimit="10" stroke-opacity="1" fill="#17B5F9" fill-opacity="1"/><g clip-path="url(#clip7)"><g clip-path="url(#clip8)" filter="url(#fx1)" transform="translate(151 1232)"><g><g><path d="M24.7017 73.2266C38.831 66.1186 99.7911 51.7412 135.941 54.6013 172.091 57.4615 199.85 79.1694 241.601 90.3874 283.353 101.605 348.037 132.225 386.45 121.909 424.863 111.593 437.074 41.2003 472.08 28.4905 507.086 15.7808 572.552 36.7083 596.486 45.6506 596.882 61.8014 589.059 60.4606 589.456 76.6114 551.459 80.5901 578.748 76.5467 502.499 81.7918 425.105 83.2408 203.764 95.7513 123.944 99.0734 57.659 103.135 57.7987 118.67 24.7261 136.5 23.9543 114.644 25.4735 95.0826 24.7017 73.2266Z" stroke="#7030A0" stroke-width="9" stroke-linecap="butt" stroke-linejoin="round" stroke-miterlimit="10" stroke-opacity="1" fill="#7030A0" fill-rule="evenodd" fill-opacity="1"/></g></g></g></g><path d="M175.702 1305.23C189.831 1298.12 250.791 1283.74 286.941 1286.6 323.091 1289.46 350.85 1311.17 392.601 1322.39 434.353 1333.61 499.037 1364.23 537.45 1353.91 575.863 1343.59 588.074 1273.2 623.08 1260.49 658.086 1247.78 723.552 1268.71 747.486 1277.65 747.882 1293.8 740.059 1292.46 740.456 1308.61 702.459 1312.59 729.748 1308.55 653.499 1313.79 576.105 1315.24 354.764 1327.75 274.944 1331.07 208.659 1335.13 208.799 1350.67 175.726 1368.5 174.954 1346.64 176.473 1327.08 175.702 1305.23Z" stroke="#7030A0" stroke-width="9.16667" stroke-linecap="butt" stroke-linejoin="round" stroke-miterlimit="10" stroke-opacity="1" fill="#7030A0" fill-rule="evenodd" fill-opacity="1"/><g clip-path="url(#clip9)"><g clip-path="url(#clip10)" filter="url(#fx2)" transform="translate(199 1125)"><g><g><path d="M24.4999 278.352C37.9375 259.753 73.0808 291.12 113.524 248.813 153.966 206.505 211.448 23.4111 267.157 24.5052 322.867 25.5992 391.932 183.205 425.955 239.37 459.979 295.536 540.445 343.995 471.297 361.5L32.8984 360.406 24.4999 278.352Z" stroke="#FFC400" stroke-width="9" stroke-linecap="butt" stroke-linejoin="round" stroke-miterlimit="10" stroke-opacity="1" fill="#FFC400" fill-rule="evenodd" fill-opacity="1"/></g></g></g></g><path d="M223.5 1403.35C236.937 1384.75 272.081 1416.12 312.523 1373.81 352.966 1331.5 410.448 1148.41 466.157 1149.51 521.867 1150.6 590.932 1308.2 624.955 1364.37 658.979 1420.54 739.445 1468.99 670.297 1486.5L231.898 1485.41 223.5 1403.35Z" stroke="#FFC400" stroke-width="9.16667" stroke-linecap="butt" stroke-linejoin="round" stroke-miterlimit="10" stroke-opacity="1" fill="#FFC400" fill-rule="evenodd" fill-opacity="1"/><g clip-path="url(#clip11)"><g clip-path="url(#clip12)" filter="url(#fx3)" transform="translate(144 1317)"><g><g><path d="M24.4999 76.0704C38.641 58.8322 90.7685 66.0958 112.81 76.0704 134.851 86.0449 199.586 130.531 249.603 142.799 299.62 155.067 376.152 168.691 412.912 149.68 449.671 130.67 437.262 43.3493 470.161 28.7351 503.061 14.121 586.356 40.3085 610.31 61.9951 610.706 101.163 611.103 140.332 611.5 179.5L27.9629 179.5 24.4999 76.0704Z" stroke="#BFBFBF" stroke-width="9" stroke-linecap="butt" stroke-linejoin="round" stroke-miterlimit="10" stroke-opacity="1" fill="#BFBFBF" fill-rule="evenodd" fill-opacity="1"/></g></g></g></g><path d="M168.5 1393.07C182.641 1375.83 234.768 1383.1 256.81 1393.07 278.851 1403.04 343.586 1447.53 393.603 1459.8 443.62 1472.07 520.152 1485.69 556.912 1466.68 593.671 1447.67 581.262 1360.35 614.161 1345.74 647.061 1331.12 730.356 1357.31 754.31 1379 754.706 1418.16 755.103 1457.33 755.5 1496.5L171.963 1496.5 168.5 1393.07Z" stroke="#BFBFBF" stroke-width="9.16667" stroke-linecap="butt" stroke-linejoin="round" stroke-miterlimit="10" stroke-opacity="1" fill="#BFBFBF" fill-rule="evenodd" fill-opacity="1"/><rect x="166" y="1101" width="588" height="395" stroke="#FFFFFF" stroke-width="45.8333" stroke-linecap="butt" stroke-linejoin="round" stroke-miterlimit="10" stroke-opacity="1" fill="none"/></g></g></svg>