<svg width="958" height="949" xmlns="http://www.w3.org/2000/svg" xmlns:xlink="http://www.w3.org/1999/xlink" xml:space="preserve" overflow="hidden"><defs><filter id="fx0" x="-10%" y="-10%" width="120%" height="120%" filterUnits="userSpaceOnUse" primitiveUnits="userSpaceOnUse"><feComponentTransfer color-interpolation-filters="sRGB"><feFuncR type="discrete" tableValues="0.000000 0.000000"/><feFuncG type="discrete" tableValues="0.000000 0.000000"/><feFuncB type="discrete" tableValues="0.000000 0.000000"/><feFuncA type="linear" slope="0.250980" intercept="0.000000"/></feComponentTransfer><feGaussianBlur stdDeviation="6.111111 6.111111"/></filter><filter id="fx1" x="-10%" y="-10%" width="120%" height="120%" filterUnits="userSpaceOnUse" primitiveUnits="userSpaceOnUse"><feComponentTransfer color-interpolation-filters="sRGB"><feFuncR type="discrete" tableValues="0.000000 0.000000"/><feFuncG type="discrete" tableValues="0.000000 0.000000"/><feFuncB type="discrete" tableValues="0.000000 0.000000"/><feFuncA type="linear" slope="0.250980" intercept="0.000000"/></feComponentTransfer><feGaussianBlur stdDeviation="6.111111 6.111111"/></filter><filter id="fx2" x="-10%" y="-10%" width="120%" height="120%" filterUnits="userSpaceOnUse" primitiveUnits="userSpaceOnUse"><feComponentTransfer color-interpolation-filters="sRGB"><feFuncR type="discrete" tableValues="0.000000 0.000000"/><feFuncG type="discrete" tableValues="0.000000 0.000000"/><feFuncB type="discrete" tableValues="0.000000 0.000000"/><feFuncA type="linear" slope="0.250980" intercept="0.000000"/></feComponentTransfer><feGaussianBlur stdDeviation="6.111111 6.111111"/></filter><filter id="fx3" x="-10%" y="-10%" width="120%" height="120%" filterUnits="userSpaceOnUse" primitiveUnits="userSpaceOnUse"><feComponentTransfer color-interpolation-filters="sRGB"><feFuncR type="discrete" tableValues="0.000000 0.000000"/><feFuncG type="discrete" tableValues="0.000000 0.000000"/><feFuncB type="discrete" tableValues="0.000000 0.000000"/><feFuncA type="linear" slope="0.250980" intercept="0.000000"/></feComponentTransfer><feGaussianBlur stdDeviation="6.111111 6.111111"/></filter><linearGradient x1="6440.75" y1="2350.25" x2="5524.25" y2="1433.75" gradientUnits="userSpaceOnUse" spreadMethod="reflect" id="fill4"><stop offset="0" stop-color="#122635" stop-opacity="1"/><stop offset="0.0384615" stop-color="#122736" stop-opacity="1"/><stop offset="0.0769231" stop-color="#132838" stop-opacity="1"/><stop offset="0.115385" stop-color="#14293A" stop-opacity="1"/><stop offset="0.153846" stop-color="#152B3C" stop-opacity="1"/><stop offset="0.192308" stop-color="#152C3D" stop-opacity="1"/><stop offset="0.230769" stop-color="#162D3F" stop-opacity="1"/><stop offset="0.269231" stop-color="#172E41" stop-opacity="1"/><stop offset="0.307692" stop-color="#172F42" stop-opacity="1"/><stop offset="0.346154" stop-color="#183043" stop-opacity="1"/><stop offset="0.384615" stop-color="#193145" stop-opacity="1"/><stop offset="0.423077" stop-color="#193246" stop-opacity="1"/><stop offset="0.461538" stop-color="#1A3347" stop-opacity="1"/><stop offset="0.5" stop-color="#1A3348" stop-opacity="1"/><stop offset="0.538462" stop-color="#1B3449" stop-opacity="1"/><stop offset="0.576923" stop-color="#1B354A" stop-opacity="1"/><stop offset="0.615385" stop-color="#1B354B" stop-opacity="1"/><stop offset="0.653846" stop-color="#1C364C" stop-opacity="1"/><stop offset="0.692308" stop-color="#1C364D" stop-opacity="1"/><stop offset="0.730769" stop-color="#1C374D" stop-opacity="1"/><stop offset="0.769231" stop-color="#1D374E" stop-opacity="1"/><stop offset="0.807692" stop-color="#1D384E" stop-opacity="1"/><stop offset="0.846154" stop-color="#1D384F" stop-opacity="1"/><stop offset="0.884615" stop-color="#1D384F" stop-opacity="1"/><stop offset="0.923077" stop-color="#1D384F" stop-opacity="1"/><stop offset="0.961538" stop-color="#1D384F" stop-opacity="1"/><stop offset="1" stop-color="#1E3950" stop-opacity="1"/></linearGradient><clipPath id="clip5"><rect x="1.66699" y="1.66663" width="970.667" height="922.667"/></clipPath><clipPath id="clip6"><rect x="1.66699" y="1.6665" width="969.667" height="816.667"/></clipPath><clipPath id="clip7"><rect x="1.6665" y="1.66675" width="905.667" height="380.667"/></clipPath><clipPath id="clip8"><rect x="1.6665" y="1.66675" width="747.667" height="291.667"/></clipPath></defs><g transform="translate(-5504 -1420)"><g><path d="M5524 1892C5524 1639.05 5729.28 1434 5982.5 1434 6235.72 1434 6441 1639.05 6441 1892 6441 2144.95 6235.72 2350 5982.5 2350 5729.28 2350 5524 2144.95 5524 1892Z" fill="url(#fill4)" fill-rule="evenodd"/><g clip-path="url(#clip5)" filter="url(#fx0)" transform="translate(5505 1464)"><g><g><path d="M684.86 20C673.364 27.8373 661.735 35.5908 650.639 43.931 535.945 129.806 446.196 238.313 324.667 317.147 234.696 375.486 130.61 415.469 20 433.91L20.2663 473.012C37.355 581.603 89.5531 686.296 178.414 769.865 201.895 791.952 227.195 811.106 253.471 828.457 427.82 925.27 651.748 899.998 799.732 751.97 978.741 572.927 978.741 282.57 799.732 103.528 765.111 68.9097 726.184 41.2487 684.86 20Z" fill="#68349A" fill-rule="evenodd" fill-opacity="1"/></g></g></g><path d="M6189.86 1484C6178.36 1491.84 6166.74 1499.59 6155.64 1507.93 6040.94 1593.81 5951.2 1702.31 5829.67 1781.15 5739.7 1839.49 5635.61 1879.47 5525 1897.91L5525.27 1937.01C5542.35 2045.6 5594.55 2150.3 5683.41 2233.87 5706.89 2255.95 5732.19 2275.11 5758.47 2292.46 5932.82 2389.27 6156.75 2364 6304.73 2215.97 6483.74 2036.93 6483.74 1746.57 6304.73 1567.53 6270.11 1532.91 6231.18 1505.25 6189.86 1484Z" fill="#68349A" fill-rule="evenodd" fill-opacity="1"/><g clip-path="url(#clip6)" filter="url(#fx1)" transform="translate(5506 1570)"><g><g><path d="M819.418 19.9999C759.414 40.1284 702.512 63.883 650.175 91.6338 535.573 152.389 445.7 229.277 324.23 285.038 234.401 326.294 130.436 354.489 20 367.587 37.1503 475.926 89.399 580.454 178.031 663.854 201.607 686.017 227 705.184 253.369 722.611 427.575 819.221 651.238 793.912 799.077 645.945 970.757 474.15 977.227 200.084 819.418 19.9999Z" fill="#EEC643" fill-rule="evenodd" fill-opacity="1"/></g></g></g><path d="M6325.42 1590C6265.41 1610.13 6208.51 1633.88 6156.17 1661.63 6041.57 1722.39 5951.7 1799.28 5830.23 1855.04 5740.4 1896.29 5636.44 1924.49 5526 1937.59 5543.15 2045.93 5595.4 2150.45 5684.03 2233.85 5707.61 2256.02 5733 2275.18 5759.37 2292.61 5933.58 2389.22 6157.24 2363.91 6305.08 2215.95 6476.76 2044.15 6483.23 1770.08 6325.42 1590Z" fill="#EEC643" fill-rule="evenodd" fill-opacity="1"/><g clip-path="url(#clip7)" filter="url(#fx2)" transform="translate(5532 2006)"><g><g><path d="M889 20.0001C765.771 45.4196 645.921 59.0085 516.738 64.5396 370.336 70.8219 196.656 67.5272 20 42.0565 42.1675 103.207 77.4103 160.737 126.452 209.767 305.523 388.744 595.753 388.744 774.823 209.767 829.739 154.865 867.758 89.4128 889 20.0001Z" fill="#6AB3F2" fill-rule="evenodd" fill-opacity="1"/></g></g></g><path d="M6421 2026C6297.77 2051.42 6177.92 2065.01 6048.74 2070.54 5902.34 2076.82 5728.66 2073.53 5552 2048.06 5574.17 2109.21 5609.41 2166.74 5658.45 2215.77 5837.52 2394.74 6127.75 2394.74 6306.82 2215.77 6361.74 2160.86 6399.76 2095.41 6421 2026Z" fill="#6AB3F2" fill-rule="evenodd" fill-opacity="1"/><g clip-path="url(#clip8)" filter="url(#fx3)" transform="translate(5569 2095)"><g><g><path d="M20 20C44.9837 62.5519 76.1887 102.833 114.537 138.927 135.11 158.3 157.098 175.275 179.843 191.007 353.38 294.037 579.748 272.736 731 126.595 682.514 112.259 634.291 97.7454 581.032 84.8428 423.657 46.7186 226.717 24.8464 20 20Z" fill="#BFBFBF" fill-rule="evenodd" fill-opacity="1"/></g></g></g><path d="M5589 2115C5613.98 2157.55 5645.19 2197.83 5683.54 2233.93 5704.11 2253.3 5726.1 2270.28 5748.84 2286.01 5922.38 2389.04 6148.75 2367.74 6300 2221.6 6251.51 2207.26 6203.29 2192.75 6150.03 2179.84 5992.66 2141.72 5795.72 2119.85 5589 2115Z" fill="#BFBFBF" fill-rule="evenodd" fill-opacity="1"/><path d="M5524.5 1892.5C5524.5 1639.55 5729.78 1434.5 5983 1434.5 6236.22 1434.5 6441.5 1639.55 6441.5 1892.5 6441.5 2145.45 6236.22 2350.5 5983 2350.5 5729.78 2350.5 5524.5 2145.45 5524.5 1892.5Z" stroke="#122635" stroke-width="22.9167" stroke-linecap="butt" stroke-linejoin="miter" stroke-miterlimit="4" stroke-opacity="1" fill="none" fill-rule="evenodd"/></g></g></svg>