<svg width="2314" height="614" xmlns="http://www.w3.org/2000/svg" xmlns:xlink="http://www.w3.org/1999/xlink" xml:space="preserve" overflow="hidden"><defs><filter id="fx0" x="-10%" y="-10%" width="120%" height="120%" filterUnits="userSpaceOnUse" primitiveUnits="userSpaceOnUse"><feComponentTransfer color-interpolation-filters="sRGB"><feFuncR type="discrete" tableValues="0.000000 0.000000"/><feFuncG type="discrete" tableValues="0.000000 0.000000"/><feFuncB type="discrete" tableValues="0.000000 0.000000"/><feFuncA type="linear" slope="0.400000" intercept="0.000000"/></feComponentTransfer><feGaussianBlur stdDeviation="6.111111 6.111111"/></filter><filter id="fx1" x="-10%" y="-10%" width="120%" height="120%" filterUnits="userSpaceOnUse" primitiveUnits="userSpaceOnUse"><feComponentTransfer color-interpolation-filters="sRGB"><feFuncR type="discrete" tableValues="0.000000 0.000000"/><feFuncG type="discrete" tableValues="0.000000 0.000000"/><feFuncB type="discrete" tableValues="0.000000 0.000000"/><feFuncA type="linear" slope="0.400000" intercept="0.000000"/></feComponentTransfer><feGaussianBlur stdDeviation="6.111111 6.111111"/></filter><filter id="fx2" x="-10%" y="-10%" width="120%" height="120%" filterUnits="userSpaceOnUse" primitiveUnits="userSpaceOnUse"><feComponentTransfer color-interpolation-filters="sRGB"><feFuncR type="discrete" tableValues="0.000000 0.000000"/><feFuncG type="discrete" tableValues="0.000000 0.000000"/><feFuncB type="discrete" tableValues="0.000000 0.000000"/><feFuncA type="linear" slope="0.400000" intercept="0.000000"/></feComponentTransfer><feGaussianBlur stdDeviation="6.111111 6.111111"/></filter><filter id="fx3" x="-10%" y="-10%" width="120%" height="120%" filterUnits="userSpaceOnUse" primitiveUnits="userSpaceOnUse"><feComponentTransfer color-interpolation-filters="sRGB"><feFuncR type="discrete" tableValues="0.000000 0.000000"/><feFuncG type="discrete" tableValues="0.000000 0.000000"/><feFuncB type="discrete" tableValues="0.000000 0.000000"/><feFuncA type="linear" slope="0.400000" intercept="0.000000"/></feComponentTransfer><feGaussianBlur stdDeviation="6.111111 6.111111"/></filter><linearGradient x1="1812.11" y1="1831.51" x2="1420.2" y2="765.613" gradientUnits="userSpaceOnUse" spreadMethod="reflect" id="fill4"><stop offset="0" stop-color="#023B53" stop-opacity="1"/><stop offset="0.1" stop-color="#023B53" stop-opacity="1"/><stop offset="0.4" stop-color="#034E6E" stop-opacity="1"/><stop offset="0.9" stop-color="#6EA1B6" stop-opacity="1"/><stop offset="1" stop-color="#6EA1B6" stop-opacity="1"/></linearGradient><clipPath id="clip5"><path d="M182.5 1304.5 182.5 1409.5 739.5 1409.5 739.5 1304.5ZM142 990 2456 990 2456 1604 142 1604Z" fill-rule="evenodd" clip-rule="evenodd"/></clipPath><clipPath id="clip6"><rect x="1.6667" y="1.66675" width="602.666" height="150.667"/></clipPath><clipPath id="clip7"><path d="M653.921 1256.55C642.487 1256.24 631.832 1257.31 623.08 1260.49 605.577 1266.85 593.773 1287.62 581.543 1308.1L576.331 1316.5 572.924 1316.64C523.602 1318.78 464.073 1321.77 409.392 1324.53L401.114 1324.95 392.601 1322.39C350.85 1311.17 323.091 1289.46 286.941 1286.6 250.791 1283.74 189.831 1298.12 175.702 1305.23 176.473 1327.08 174.954 1346.64 175.726 1368.5 208.799 1350.67 208.659 1335.13 274.944 1331.07 294.899 1330.24 323.699 1328.84 356.884 1327.18L401.114 1324.95 409.237 1327.39C450.113 1340.62 503.839 1362.94 537.45 1353.91 551.855 1350.04 562.575 1337.72 572.195 1323.17L576.331 1316.5 618.287 1314.81C631.902 1314.33 643.825 1313.97 653.499 1313.79 729.749 1308.55 702.459 1312.59 740.456 1308.61 740.059 1292.46 747.882 1293.8 747.486 1277.65 729.536 1270.94 688.224 1257.5 653.921 1256.55ZM142 990 2456 990 2456 1604 142 1604Z" fill-rule="evenodd" clip-rule="evenodd"/></clipPath><clipPath id="clip8"><rect x="1.66029" y="-2.55249" width="617.71" height="162.93"/></clipPath><clipPath id="clip9"><path d="M466.157 1149.51C410.448 1148.41 352.966 1331.5 312.524 1373.81 272.081 1416.12 236.937 1384.75 223.5 1403.35L231.898 1485.41 670.297 1486.5C739.445 1468.99 658.979 1420.54 624.955 1364.37 590.932 1308.2 521.867 1150.6 466.157 1149.51ZM142 990 2456 990 2456 1604 142 1604Z" fill-rule="evenodd" clip-rule="evenodd"/></clipPath><clipPath id="clip10"><rect x="1.57761" y="1.61292" width="539.756" height="382.721"/></clipPath><clipPath id="clip11"><path d="M646.57 1341.72C633.761 1340.98 622.386 1342.08 614.161 1345.74 581.262 1360.35 593.671 1447.67 556.912 1466.68 520.152 1485.69 443.62 1472.07 393.603 1459.8 343.586 1447.53 278.851 1403.04 256.81 1393.07 234.768 1383.1 182.641 1375.83 168.5 1393.07L171.963 1496.5 755.5 1496.5C755.103 1457.33 754.706 1418.16 754.31 1379 736.345 1362.73 685 1343.93 646.57 1341.72ZM142 990 2456 990 2456 1604 142 1604Z" fill-rule="evenodd" clip-rule="evenodd"/></clipPath><clipPath id="clip12"><rect x="1.63257" y="-4.21228" width="632.726" height="206.545"/></clipPath></defs><g transform="translate(-142 -990)"><g><path d="M1690.95 1254.31C1677.85 1254.31 1666.84 1256.92 1657.94 1262.13 1649.03 1267.33 1642.23 1274.56 1637.53 1283.8 1632.82 1293.04 1630.47 1304.04 1630.47 1316.81L1630.47 1363.68C1630.47 1373.43 1631.9 1382.25 1634.75 1390.14 1637.61 1398.04 1641.73 1404.67 1647.1 1410.05 1651.81 1415.09 1657.69 1418.95 1664.74 1421.64 1671.8 1424.33 1679.53 1425.67 1687.93 1425.67 1701.03 1425.67 1712.03 1423.07 1720.94 1417.86 1729.84 1412.65 1736.65 1405.35 1741.35 1395.94 1746.05 1386.53 1748.41 1375.61 1748.41 1363.18L1748.41 1316.31C1748.41 1305.55 1747.06 1296.31 1744.37 1288.59 1741.69 1280.86 1737.82 1274.31 1732.78 1268.93 1727.74 1264.23 1721.78 1260.61 1714.89 1258.09 1708 1255.57 1700.02 1254.31 1690.95 1254.31ZM2334.4 1250.79C2316.26 1250.79 2302.48 1255.41 2293.08 1264.65 2283.67 1273.89 2278.96 1289.26 2278.96 1310.76L2278.96 1318.32 2387.32 1318.32C2387.32 1316.64 2387.32 1315.21 2387.32 1314.04 2387.32 1312.86 2387.32 1311.43 2387.32 1309.75 2387.32 1299 2386.15 1289.76 2383.8 1282.03 2381.44 1274.31 2377.92 1268.09 2373.21 1263.39 2368.84 1259.02 2363.47 1255.83 2357.08 1253.81 2350.7 1251.79 2343.14 1250.79 2334.4 1250.79ZM1202.32 1250.79C1184.18 1250.79 1170.4 1255.41 1160.99 1264.65 1151.59 1273.89 1146.88 1289.26 1146.88 1310.76L1146.88 1318.32 1255.24 1318.32C1255.24 1316.64 1255.24 1315.21 1255.24 1314.04 1255.24 1312.86 1255.24 1311.43 1255.24 1309.75 1255.24 1299 1254.07 1289.76 1251.71 1282.03 1249.36 1274.31 1245.83 1268.09 1241.13 1263.39 1236.76 1259.02 1231.39 1255.83 1225 1253.81 1218.62 1251.79 1211.06 1250.79 1202.32 1250.79ZM1946.7 1204.92C1956.44 1204.92 1966.27 1204.92 1976.18 1204.92 1986.09 1204.92 1995.92 1204.92 2005.67 1204.92 2007.01 1204.92 2008.19 1205.17 2009.19 1205.68 2010.2 1206.18 2011.04 1206.94 2011.71 1207.95 2012.39 1208.95 2012.89 1210.3 2013.23 1211.98 2019.61 1233.48 2026.08 1255.32 2032.63 1277.5 2039.18 1299.67 2045.82 1323.28 2052.54 1348.31 2059.26 1373.34 2065.98 1400.98 2072.7 1431.22L2081.77 1431.22C2086.14 1413.07 2090.34 1395.85 2094.37 1379.56 2098.4 1363.26 2102.52 1347.47 2106.72 1332.18 2110.92 1316.89 2114.95 1302.19 2118.81 1288.08 2122.68 1273.97 2126.63 1260.03 2130.66 1246.25 2134.69 1232.47 2138.72 1218.7 2142.75 1204.92 2152.16 1204.92 2161.57 1204.92 2170.98 1204.92 2180.39 1204.92 2189.63 1204.92 2198.7 1204.92 2200.38 1204.92 2201.72 1205.34 2202.73 1206.18 2203.74 1207.02 2204.49 1208.03 2205 1209.21 2205.5 1210.38 2205.42 1211.81 2204.75 1213.49 2197.69 1234.99 2190.63 1256.67 2183.58 1278.51 2176.52 1300.35 2169.63 1322.27 2162.91 1344.28 2156.19 1366.29 2149.31 1388.13 2142.25 1409.8 2135.19 1431.47 2128.14 1453.23 2121.08 1475.07 2107.64 1475.07 2094.29 1475.07 2081.01 1475.07 2067.74 1475.07 2055.56 1475.07 2044.47 1475.07 2041.45 1475.07 2038.85 1474.65 2036.66 1473.81 2034.48 1472.97 2032.71 1471.29 2031.37 1468.77 2030.03 1466.25 2028.51 1462.47 2026.83 1457.43 2021.79 1441.97 2016.67 1426.18 2011.46 1410.05 2006.25 1393.92 2001.05 1377.46 1995.84 1360.66 1990.63 1343.86 1985.25 1326.81 1979.71 1309.5 1974.17 1292.2 1968.62 1274.81 1963.08 1257.34 1957.53 1239.87 1952.07 1222.39 1946.7 1204.92ZM1463.52 1200.39C1474.95 1200.39 1485.28 1200.81 1494.52 1201.65 1503.76 1202.49 1511.99 1203.66 1519.22 1205.17 1526.44 1206.69 1532.74 1208.28 1538.12 1209.96 1540.13 1210.63 1541.64 1211.39 1542.65 1212.23 1543.66 1213.07 1544.33 1214.16 1544.67 1215.51 1545 1216.85 1545.17 1218.53 1545.17 1220.55 1545.17 1227.27 1545.17 1235.25 1545.17 1244.49 1545.17 1253.73 1545.17 1262.38 1545.17 1270.44L1536.1 1270.44C1527.7 1267.42 1519.38 1265.07 1511.15 1263.39 1502.92 1261.71 1494.44 1260.53 1485.7 1259.86 1476.96 1259.19 1467.39 1258.85 1456.97 1258.85 1443.2 1258.85 1432.19 1259.94 1423.96 1262.13 1415.73 1264.31 1409.93 1267.33 1406.57 1271.2 1403.21 1275.06 1401.53 1279.51 1401.53 1284.55 1401.53 1288.92 1402.46 1292.62 1404.3 1295.64 1406.15 1298.67 1409.6 1301.19 1414.64 1303.2 1419.68 1305.22 1426.56 1307.23 1435.3 1309.25L1484.19 1317.31C1499.98 1319.67 1513.42 1324.12 1524.51 1330.67 1535.6 1337.22 1544.08 1345.62 1549.96 1355.87 1555.84 1366.12 1558.78 1378.47 1558.78 1392.91 1558.78 1410.39 1554.24 1425.67 1545.17 1438.78 1536.1 1451.88 1522.83 1461.96 1505.36 1469.02 1487.88 1476.07 1466.72 1479.6 1441.85 1479.6 1429.76 1479.6 1418.42 1479.18 1407.83 1478.34 1397.25 1477.5 1387.67 1476.24 1379.1 1474.56 1370.54 1472.88 1362.72 1470.95 1355.67 1468.77 1348.61 1466.58 1342.73 1464.15 1338.03 1461.46 1336.35 1460.45 1335.17 1459.53 1334.5 1458.69 1333.83 1457.85 1333.49 1456.25 1333.49 1453.9 1333.49 1446.84 1333.49 1438.53 1333.49 1428.95 1333.49 1419.37 1333.49 1410.05 1333.49 1400.98L1342.56 1400.98C1350.29 1405.01 1357.77 1408.29 1364.99 1410.81 1372.22 1413.33 1379.78 1415.34 1387.67 1416.85 1395.57 1418.37 1403.97 1419.46 1412.87 1420.13 1421.78 1420.8 1431.27 1421.14 1441.35 1421.14 1463.19 1421.14 1478.31 1418.45 1486.71 1413.07 1495.11 1407.7 1499.31 1401.15 1499.31 1393.42 1499.31 1389.05 1498.22 1385.1 1496.03 1381.57 1493.85 1378.05 1490.15 1375.02 1484.94 1372.5 1479.74 1369.98 1472.6 1367.88 1463.52 1366.2L1412.62 1357.63C1396.16 1354.61 1382.63 1349.91 1372.05 1343.52 1361.46 1337.14 1353.65 1329.16 1348.61 1319.58 1343.57 1310.01 1341.05 1299 1341.05 1286.57 1341.05 1273.13 1343.74 1261.12 1349.12 1250.53 1354.49 1239.95 1362.39 1230.88 1372.8 1223.32 1383.22 1215.76 1396.07 1210.05 1411.36 1206.18 1426.65 1202.32 1444.04 1200.39 1463.52 1200.39ZM2334.4 1199.38C2356.58 1199.38 2376.07 1203.83 2392.87 1212.73 2409.67 1221.64 2422.77 1234.41 2432.18 1251.04 2441.59 1267.67 2446.29 1287.91 2446.29 1311.77L2446.29 1352.09C2446.29 1353.1 2446.12 1354.02 2445.79 1354.86 2445.45 1355.7 2444.86 1356.29 2444.02 1356.63 2443.18 1356.96 2442.26 1357.13 2441.25 1357.13L2320.29 1357.13C2314.92 1357.13 2309.29 1357.13 2303.41 1357.13 2297.53 1357.13 2291.73 1357.13 2286.02 1357.13L2278.96 1357.13 2278.96 1368.72C2278.96 1375.11 2279.47 1380.9 2280.48 1386.11 2281.48 1391.32 2283 1395.94 2285.01 1399.97 2287.03 1404 2289.55 1407.53 2292.57 1410.55 2298.62 1416.6 2306.35 1420.97 2315.76 1423.66 2325.16 1426.35 2336.25 1427.69 2349.02 1427.69 2361.12 1427.69 2371.87 1427.02 2381.28 1425.67 2390.68 1424.33 2399.5 1422.4 2407.74 1419.88 2415.97 1417.36 2423.95 1414.42 2431.68 1411.06L2440.75 1411.06C2440.75 1418.79 2440.75 1426.6 2440.75 1434.49 2440.75 1442.39 2440.75 1450.03 2440.75 1457.43 2440.75 1458.1 2440.58 1458.77 2440.24 1459.44 2439.91 1460.11 2439.4 1460.79 2438.73 1461.46 2435.71 1464.82 2429.49 1467.93 2420.08 1470.78 2410.68 1473.64 2399.67 1475.99 2387.07 1477.84 2374.47 1479.69 2361.62 1480.61 2348.52 1480.61 2327.01 1480.61 2308.03 1478.09 2291.56 1473.05 2275.1 1468.01 2261.49 1460.62 2250.74 1450.87 2239.99 1441.13 2231.84 1429.37 2226.3 1415.59 2220.75 1401.82 2217.98 1386.19 2217.98 1368.72L2217.98 1312.78C2217.98 1294.63 2220.75 1278.59 2226.3 1264.65 2231.84 1250.7 2239.9 1238.86 2250.49 1229.11 2261.07 1219.37 2273.5 1211.98 2287.78 1206.94 2302.06 1201.9 2317.6 1199.38 2334.4 1199.38ZM1689.44 1199.38C1707.25 1199.38 1723.46 1202.15 1738.07 1207.69 1752.69 1213.24 1765.29 1221.05 1775.87 1231.13 1786.46 1241.21 1794.69 1253.14 1800.57 1266.91 1806.45 1280.69 1809.39 1295.98 1809.39 1312.78L1809.39 1365.7C1809.39 1388.55 1804.27 1408.62 1794.02 1425.93 1783.77 1443.23 1769.66 1456.67 1751.68 1466.25 1733.71 1475.82 1712.96 1480.61 1689.44 1480.61 1671.63 1480.61 1655.33 1477.84 1640.55 1472.29 1625.77 1466.75 1613.17 1458.94 1602.75 1448.86 1592.33 1438.78 1584.19 1426.85 1578.31 1413.07 1572.43 1399.3 1569.49 1384.01 1569.49 1367.21L1569.49 1314.29C1569.49 1291.44 1574.61 1271.45 1584.86 1254.31 1595.11 1237.18 1609.3 1223.74 1627.45 1213.99 1645.59 1204.25 1666.25 1199.38 1689.44 1199.38ZM1202.32 1199.38C1224.5 1199.38 1243.99 1203.83 1260.79 1212.73 1277.59 1221.64 1290.69 1234.41 1300.1 1251.04 1309.51 1267.67 1314.21 1287.91 1314.21 1311.77L1314.21 1352.09C1314.21 1353.1 1314.04 1354.02 1313.71 1354.86 1313.37 1355.7 1312.78 1356.29 1311.94 1356.63 1311.1 1356.96 1310.18 1357.13 1309.17 1357.13L1188.21 1357.13C1182.83 1357.13 1177.21 1357.13 1171.33 1357.13 1165.45 1357.13 1159.65 1357.13 1153.94 1357.13L1146.88 1357.13 1146.88 1368.72C1146.88 1375.11 1147.39 1380.9 1148.39 1386.11 1149.4 1391.32 1150.91 1395.94 1152.93 1399.97 1154.95 1404 1157.47 1407.53 1160.49 1410.55 1166.54 1416.6 1174.27 1420.97 1183.67 1423.66 1193.08 1426.35 1204.17 1427.69 1216.94 1427.69 1229.03 1427.69 1239.79 1427.02 1249.19 1425.67 1258.6 1424.33 1267.42 1422.4 1275.65 1419.88 1283.89 1417.36 1291.87 1414.42 1299.59 1411.06L1308.67 1411.06C1308.67 1418.79 1308.67 1426.6 1308.67 1434.49 1308.67 1442.39 1308.67 1450.03 1308.67 1457.43 1308.67 1458.1 1308.5 1458.77 1308.16 1459.44 1307.83 1460.11 1307.32 1460.79 1306.65 1461.46 1303.63 1464.82 1297.41 1467.93 1288 1470.78 1278.59 1473.64 1267.59 1475.99 1254.99 1477.84 1242.39 1479.69 1229.54 1480.61 1216.43 1480.61 1194.93 1480.61 1175.95 1478.09 1159.48 1473.05 1143.02 1468.01 1129.41 1460.62 1118.66 1450.87 1107.91 1441.13 1099.76 1429.37 1094.21 1415.59 1088.67 1401.82 1085.9 1386.19 1085.9 1368.72L1085.9 1312.78C1085.9 1294.63 1088.67 1278.59 1094.21 1264.65 1099.76 1250.7 1107.82 1238.86 1118.41 1229.11 1128.99 1219.37 1141.42 1211.98 1155.7 1206.94 1169.98 1201.9 1185.52 1199.38 1202.32 1199.38ZM897.775 1177.2 897.775 1204.67C897.775 1216.93 897.775 1229.11 897.775 1241.21 897.775 1251.46 897.775 1261.62 897.775 1271.7L897.775 1295.64 918.439 1295.64C929.191 1295.64 939.775 1295.64 950.191 1295.64 960.943 1295.64 969.763 1293.96 976.651 1290.6 983.539 1287.24 988.663 1282.29 992.023 1275.73 995.383 1269.18 997.063 1261.03 997.063 1251.29L997.063 1221.55C997.063 1214.5 996.223 1208.2 994.543 1202.65 992.863 1197.11 990.175 1192.49 986.479 1188.79 982.783 1185.1 977.995 1182.24 972.115 1180.23 966.235 1178.21 958.927 1177.2 950.191 1177.2 935.407 1177.2 920.371 1177.2 905.083 1177.2ZM808.567 1122.27C831.751 1122.27 855.103 1122.27 878.623 1122.27 902.143 1122.27 925.495 1122.27 948.679 1122.27 968.167 1122.27 984.967 1124.62 999.079 1129.32 1013.19 1134.03 1024.78 1140.83 1033.85 1149.73 1042.93 1158.64 1049.56 1169.39 1053.76 1181.99 1057.96 1194.59 1060.06 1208.62 1060.06 1224.07L1060.06 1251.29C1060.06 1266.41 1057.71 1280.02 1053.01 1292.11 1048.3 1304.21 1041.58 1314.46 1032.85 1322.86 1025.2 1330.21 1016.02 1336.01 1005.28 1340.28L1004.31 1340.64 1008.42 1348.12C1010.47 1351.86 1012.48 1355.53 1014.45 1359.15 1022.35 1373.59 1030.66 1389.05 1039.4 1405.51 1042.76 1410.89 1045.87 1414.67 1048.72 1416.85 1051.58 1419.04 1055.19 1420.13 1059.56 1420.13 1061.24 1420.13 1062.58 1420.13 1063.59 1420.13 1064.6 1420.13 1065.77 1420.13 1067.12 1420.13L1075.69 1420.13C1075.69 1429.2 1075.69 1437.43 1075.69 1444.83 1075.69 1452.22 1075.69 1460.45 1075.69 1469.52 1075.69 1471.2 1075.18 1472.55 1074.17 1473.55 1073.17 1474.56 1071.82 1475.07 1070.14 1475.07 1067.79 1475.07 1064.77 1475.07 1061.07 1475.07 1057.37 1475.07 1054.01 1475.07 1050.99 1475.07 1040.24 1475.07 1031.17 1474.06 1023.77 1472.04 1016.38 1470.03 1009.91 1466.58 1004.37 1461.71 998.827 1456.84 993.703 1449.87 988.999 1440.79 980.263 1423.32 971.443 1405.93 962.539 1388.63L941.827 1348.56 924.487 1348.56 897.775 1348.56 897.775 1361.67C897.775 1381.83 897.775 1402.99 897.775 1425.17 897.775 1434.24 897.775 1442.98 897.775 1451.38 897.775 1459.78 897.775 1467.67 897.775 1475.07 888.031 1475.07 878.539 1475.07 869.299 1475.07 860.059 1475.07 850.399 1475.07 840.319 1475.07 838.639 1475.07 837.295 1474.56 836.287 1473.55 835.279 1472.55 834.775 1471.2 834.775 1469.52 834.775 1442.31 834.775 1415.76 834.775 1389.89 834.775 1364.02 834.775 1338.23 834.775 1312.53 834.775 1286.82 834.775 1260.95 834.775 1234.91 834.775 1221.89 834.775 1208.72 834.775 1195.41L834.775 1177.2 814.111 1177.2C812.431 1177.2 811.087 1176.7 810.079 1175.69 809.071 1174.68 808.567 1173.34 808.567 1171.66 808.567 1162.92 808.567 1154.69 808.567 1146.96 808.567 1139.23 808.567 1131 808.567 1122.27ZM1805.49 1097.07C1808.18 1097.07 1812.63 1097.07 1818.84 1097.07 1825.06 1097.07 1832.2 1097.07 1840.27 1097.07 1848.33 1097.07 1856.48 1097.07 1864.71 1097.07 1872.94 1097.07 1880.16 1097.07 1886.38 1097.07 1892.6 1097.07 1897.05 1097.07 1899.74 1097.07 1901.08 1097.07 1902.09 1097.32 1902.76 1097.82 1903.43 1098.33 1904.02 1098.91 1904.53 1099.59 1905.03 1100.26 1905.28 1101.27 1905.28 1102.61 1905.28 1120.08 1905.28 1138.65 1905.28 1158.3 1905.28 1177.96 1905.28 1198.12 1905.28 1218.78 1905.28 1239.45 1905.28 1260.03 1905.28 1280.52 1905.28 1301.02 1905.28 1321.09 1905.28 1340.75 1905.28 1360.41 1905.28 1378.97 1905.28 1396.44 1905.28 1400.81 1905.53 1404.17 1906.04 1406.52 1906.54 1408.87 1907.8 1411.06 1909.82 1413.07 1911.5 1414.75 1913.85 1415.93 1916.87 1416.6 1919.9 1417.27 1923.26 1417.61 1926.95 1417.61 1929.64 1417.61 1932.5 1417.61 1935.52 1417.61 1938.55 1417.61 1940.9 1417.61 1942.58 1417.61L1948.12 1417.61C1948.12 1425.67 1948.12 1434.33 1948.12 1443.57 1948.12 1452.81 1948.12 1461.46 1948.12 1469.52 1948.12 1470.87 1947.87 1471.87 1947.37 1472.55 1946.86 1473.22 1946.27 1473.81 1945.6 1474.31 1944.93 1474.81 1943.92 1475.07 1942.58 1475.07 1940.56 1475.07 1937.45 1475.07 1933.25 1475.07 1929.05 1475.07 1924.69 1475.07 1920.15 1475.07 1915.61 1475.07 1911.67 1475.07 1908.31 1475.07 1897.89 1475.07 1888.73 1473.64 1880.84 1470.78 1872.94 1467.93 1866.3 1463.56 1860.93 1457.68 1855.55 1451.8 1851.44 1444.41 1848.58 1435.5 1845.73 1426.6 1844.3 1416.1 1844.3 1404 1844.3 1388.88 1844.3 1372.75 1844.3 1355.62 1844.3 1338.48 1844.3 1320.93 1844.3 1302.95 1844.3 1284.97 1844.3 1267.08 1844.3 1249.27 1844.3 1231.47 1844.3 1214.16 1844.3 1197.36 1844.3 1180.56 1844.3 1164.94 1844.3 1150.49L1840.77 1150.49C1839.42 1150.49 1836.82 1150.49 1832.96 1150.49 1829.09 1150.49 1824.98 1150.49 1820.61 1150.49 1816.24 1150.49 1813.05 1150.49 1811.03 1150.49 1809.35 1150.49 1808.01 1149.99 1807 1148.98 1805.99 1147.97 1805.49 1146.63 1805.49 1144.95 1805.49 1136.88 1805.49 1128.9 1805.49 1121.01 1805.49 1113.11 1805.49 1105.13 1805.49 1097.07Z" fill="url(#fill4)" fill-rule="evenodd"/><text fill="#000000" fill-opacity="0" font-family="Arial,Arial_MSFontService,sans-serif" font-size="383.544" direction="ltr" writing-mode="lr-tb" x="808.567" y="1432.67">Resolve</text><rect x="166.5" y="1101.5" width="588" height="395" stroke="#FFFFFF" stroke-width="22.9167" stroke-linecap="butt" stroke-linejoin="round" stroke-miterlimit="10" stroke-opacity="1" fill="#FFFFFF" fill-opacity="1"/><g clip-path="url(#clip5)"><g clip-path="url(#clip6)" filter="url(#fx0)" transform="translate(158 1280)"><g><g><rect x="24.5" y="24.5" width="557" height="105" stroke="#17B5F9" stroke-width="9" stroke-linecap="butt" stroke-linejoin="round" stroke-miterlimit="10" stroke-opacity="1" fill="#17B5F9" fill-opacity="1"/></g></g></g></g><rect x="182.5" y="1304.5" width="557" height="105" stroke="#17B5F9" stroke-width="9.16667" stroke-linecap="butt" stroke-linejoin="round" stroke-miterlimit="10" stroke-opacity="1" fill="#17B5F9" fill-opacity="1"/><g clip-path="url(#clip7)"><g clip-path="url(#clip8)" filter="url(#fx1)" transform="translate(151 1232)"><g><g><path d="M24.7017 73.2266C38.831 66.1186 99.7911 51.7412 135.941 54.6013 172.091 57.4615 199.85 79.1694 241.601 90.3874 283.353 101.605 348.037 132.225 386.45 121.909 424.863 111.593 437.074 41.2003 472.08 28.4905 507.086 15.7808 572.552 36.7083 596.486 45.6506 596.882 61.8014 589.059 60.4606 589.456 76.6114 551.459 80.5901 578.748 76.5467 502.499 81.7918 425.105 83.2408 203.764 95.7513 123.944 99.0734 57.659 103.135 57.7987 118.67 24.7261 136.5 23.9543 114.644 25.4735 95.0826 24.7017 73.2266Z" stroke="#7030A0" stroke-width="9" stroke-linecap="butt" stroke-linejoin="round" stroke-miterlimit="10" stroke-opacity="1" fill="#7030A0" fill-rule="evenodd" fill-opacity="1"/></g></g></g></g><path d="M175.702 1305.23C189.831 1298.12 250.791 1283.74 286.941 1286.6 323.091 1289.46 350.85 1311.17 392.601 1322.39 434.353 1333.61 499.037 1364.23 537.45 1353.91 575.863 1343.59 588.074 1273.2 623.08 1260.49 658.086 1247.78 723.552 1268.71 747.486 1277.65 747.882 1293.8 740.059 1292.46 740.456 1308.61 702.459 1312.59 729.748 1308.55 653.499 1313.79 576.105 1315.24 354.764 1327.75 274.944 1331.07 208.659 1335.13 208.799 1350.67 175.726 1368.5 174.954 1346.64 176.473 1327.08 175.702 1305.23Z" stroke="#7030A0" stroke-width="9.16667" stroke-linecap="butt" stroke-linejoin="round" stroke-miterlimit="10" stroke-opacity="1" fill="#7030A0" fill-rule="evenodd" fill-opacity="1"/><g clip-path="url(#clip9)"><g clip-path="url(#clip10)" filter="url(#fx2)" transform="translate(199 1125)"><g><g><path d="M24.4999 278.352C37.9375 259.753 73.0808 291.12 113.524 248.813 153.966 206.505 211.448 23.4111 267.157 24.5052 322.867 25.5992 391.932 183.205 425.955 239.37 459.979 295.536 540.445 343.995 471.297 361.5L32.8984 360.406 24.4999 278.352Z" stroke="#FFC400" stroke-width="9" stroke-linecap="butt" stroke-linejoin="round" stroke-miterlimit="10" stroke-opacity="1" fill="#FFC400" fill-rule="evenodd" fill-opacity="1"/></g></g></g></g><path d="M223.5 1403.35C236.937 1384.75 272.081 1416.12 312.523 1373.81 352.966 1331.5 410.448 1148.41 466.157 1149.51 521.867 1150.6 590.932 1308.2 624.955 1364.37 658.979 1420.54 739.445 1468.99 670.297 1486.5L231.898 1485.41 223.5 1403.35Z" stroke="#FFC400" stroke-width="9.16667" stroke-linecap="butt" stroke-linejoin="round" stroke-miterlimit="10" stroke-opacity="1" fill="#FFC400" fill-rule="evenodd" fill-opacity="1"/><g clip-path="url(#clip11)"><g clip-path="url(#clip12)" filter="url(#fx3)" transform="translate(144 1317)"><g><g><path d="M24.4999 76.0704C38.641 58.8322 90.7685 66.0958 112.81 76.0704 134.851 86.0449 199.586 130.531 249.603 142.799 299.62 155.067 376.152 168.691 412.912 149.68 449.671 130.67 437.262 43.3493 470.161 28.7351 503.061 14.121 586.356 40.3085 610.31 61.9951 610.706 101.163 611.103 140.332 611.5 179.5L27.9629 179.5 24.4999 76.0704Z" stroke="#BFBFBF" stroke-width="9" stroke-linecap="butt" stroke-linejoin="round" stroke-miterlimit="10" stroke-opacity="1" fill="#BFBFBF" fill-rule="evenodd" fill-opacity="1"/></g></g></g></g><path d="M168.5 1393.07C182.641 1375.83 234.768 1383.1 256.81 1393.07 278.851 1403.04 343.586 1447.53 393.603 1459.8 443.62 1472.07 520.152 1485.69 556.912 1466.68 593.671 1447.67 581.262 1360.35 614.161 1345.74 647.061 1331.12 730.356 1357.31 754.31 1379 754.706 1418.16 755.103 1457.33 755.5 1496.5L171.963 1496.5 168.5 1393.07Z" stroke="#BFBFBF" stroke-width="9.16667" stroke-linecap="butt" stroke-linejoin="round" stroke-miterlimit="10" stroke-opacity="1" fill="#BFBFBF" fill-rule="evenodd" fill-opacity="1"/><rect x="166" y="1101" width="588" height="395" stroke="#FFFFFF" stroke-width="45.8333" stroke-linecap="butt" stroke-linejoin="round" stroke-miterlimit="10" stroke-opacity="1" fill="none"/></g></g></svg>